<svg width="220" height="74" viewBox="0 0 220 74" fill="none" xmlns="http://www.w3.org/2000/svg">
<path d="M207.435 20.5996V35.4878L185.883 35.4917V20.5996H179.34V42.72H180.103C187.883 42.7162 195.662 42.7085 203.441 42.6969C204.953 42.6949 206.465 42.6904 207.977 42.6859C210.027 42.6798 212.077 42.6737 214.128 42.6739V45.2385H220.001V35.4272H214.19C214.106 35.2976 214.106 35.0651 214.106 34.6479V21.48C214.106 21.2676 214.093 21.0533 214.08 20.8504C214.075 20.7644 214.07 20.6805 214.066 20.5996H207.435Z" fill="#00578A"/>
<path d="M131.682 29.3056V42.6516H125.078V20.6069C126.813 20.6069 128.524 20.6069 130.233 20.6165C130.471 20.6531 130.701 20.7331 130.91 20.8528C136.804 23.3592 142.695 25.8726 148.581 28.3931C148.816 28.5044 149.074 28.56 149.334 28.5557C149.594 28.5514 149.85 28.4872 150.081 28.3682C155.783 25.8438 161.493 23.3368 167.21 20.847C167.562 20.6978 167.939 20.6176 168.321 20.6107C169.865 20.5857 171.408 20.6107 173.01 20.6107V42.6804H166.439V29.3787C166.08 29.5227 165.837 29.6111 165.604 29.7149C160.454 31.9946 155.306 34.2794 150.162 36.5693C149.933 36.6897 149.679 36.7552 149.421 36.7605C149.162 36.7658 148.906 36.711 148.673 36.6001C143.311 34.2666 137.94 31.9497 132.562 29.6495C132.302 29.5285 132.033 29.4401 131.682 29.3056Z" fill="#00578A"/>
<path d="M84.1484 20.5996H119.003V21.6744C119.003 23.3924 118.967 25.1104 119.019 26.8285C119.041 27.552 118.787 27.7047 118.108 27.7028C109.339 27.6824 100.569 27.6779 91.7994 27.6894H90.7476V42.4111H84.1484V20.5996Z" fill="#00578A"/>
<path d="M84.0156 53.5866V49.1436H87.247V49.7887H84.8382V53.5866H84.0156Z" fill="#151515"/>
<path d="M90.0751 53.5858C89.6772 53.5956 89.284 53.5 88.9361 53.309C88.6142 53.1229 88.3541 52.8482 88.1878 52.5186C88.0019 52.14 87.9104 51.7231 87.9209 51.3025C87.9093 50.8787 88.0009 50.4584 88.1878 50.0768C88.3541 49.7471 88.6142 49.4725 88.9361 49.2864C89.2836 49.0945 89.6771 48.9989 90.0751 49.0096C90.4743 48.9996 90.8688 49.0952 91.218 49.2864C91.5407 49.4709 91.8005 49.746 91.9644 50.0768C92.1483 50.4559 92.2384 50.8727 92.2274 51.2929C92.2388 51.7163 92.1487 52.1362 91.9644 52.5186C91.8005 52.8493 91.5407 53.1245 91.218 53.309C90.8685 53.4993 90.4741 53.5948 90.0751 53.5858ZM90.0751 52.952C90.2579 52.9585 90.4399 52.9241 90.6073 52.8514C90.7748 52.7787 90.9234 52.6695 91.042 52.532C91.2857 52.2494 91.4075 51.8364 91.4075 51.2929C91.4075 50.7495 91.2857 50.3396 91.042 50.0635C90.9221 49.928 90.7731 49.8206 90.6058 49.7493C90.4385 49.678 90.2572 49.6444 90.0751 49.651C89.893 49.6441 89.7116 49.6776 89.5443 49.7489C89.377 49.8203 89.228 49.9278 89.1082 50.0635C88.8684 50.3384 88.7485 50.7482 88.7485 51.2929C88.7485 51.8377 88.8684 52.2507 89.1082 52.532C89.2267 52.6697 89.3752 52.779 89.5427 52.8518C89.7102 52.9245 89.8923 52.9588 90.0751 52.952Z" fill="#151515"/>
<path d="M93.5124 55.4715V50.1459C93.5124 49.9742 93.5124 49.7986 93.4927 49.6211C93.473 49.4436 93.4631 49.2661 93.4395 49.0886H94.2281L94.3267 50.1189H94.2281C94.311 49.7869 94.5178 49.4971 94.8078 49.3066C95.1217 49.1031 95.4921 48.9993 95.8685 49.0095C96.2417 49.0013 96.6095 49.097 96.9293 49.2854C97.2386 49.4761 97.4835 49.7519 97.6332 50.0784C97.8077 50.4685 97.8925 50.8914 97.8816 51.3172C97.8923 51.7441 97.8075 52.1682 97.6332 52.5598C97.4848 52.8885 97.2398 53.1666 96.9293 53.3586C96.6095 53.547 96.2417 53.6427 95.8685 53.6345C95.4966 53.6431 95.1311 53.5394 94.8216 53.3374C94.5341 53.1453 94.3248 52.8606 94.2301 52.5328H94.3287V55.4715H93.5124ZM95.6812 52.9939C95.8695 53.0015 96.057 52.9671 96.2298 52.8936C96.4026 52.8201 96.5561 52.7093 96.6789 52.5694C96.926 52.2839 97.0496 51.8664 97.0496 51.3172C97.0496 50.7679 96.926 50.3537 96.6789 50.0746C96.5548 49.9368 96.4009 49.8278 96.2282 49.7557C96.0556 49.6836 95.8687 49.6501 95.6812 49.6578C95.4955 49.6508 95.3106 49.6846 95.14 49.7567C94.9694 49.8288 94.8175 49.9375 94.6954 50.0746C94.4509 50.3524 94.3287 50.7666 94.3287 51.3172C94.3287 51.8677 94.4509 52.2852 94.6954 52.5694C94.817 52.7097 94.9698 52.8208 95.142 52.8944C95.3142 52.968 95.5014 53.002 95.6891 52.9939H95.6812Z" fill="#151515"/>
<path d="M100.98 53.5859C100.582 53.5953 100.188 53.4998 99.8405 53.309C99.5197 53.1221 99.2605 52.8476 99.094 52.5186C98.9081 52.14 98.8166 51.7231 98.8271 51.3025C98.8156 50.8787 98.9071 50.4584 99.094 50.0768C99.2605 49.7478 99.5197 49.4734 99.8405 49.2864C100.188 49.0948 100.582 48.9992 100.98 49.0096C101.379 48.9994 101.773 49.095 102.122 49.2864C102.446 49.4709 102.706 49.7459 102.871 50.0768C103.054 50.4561 103.144 50.8728 103.134 51.2929C103.144 51.7162 103.054 52.1359 102.871 52.5186C102.706 52.8494 102.446 53.1245 102.122 53.309C101.773 53.4996 101.379 53.5951 100.98 53.5859ZM100.98 52.952C101.162 52.9585 101.344 52.9242 101.512 52.8514C101.679 52.7787 101.828 52.6695 101.946 52.532C102.189 52.2494 102.31 51.8364 102.31 51.2929C102.31 50.7495 102.189 50.3396 101.946 50.0634C101.826 49.9281 101.677 49.8208 101.51 49.7495C101.343 49.6782 101.162 49.6445 100.98 49.651C100.797 49.644 100.616 49.6773 100.449 49.7487C100.281 49.8201 100.132 49.9277 100.013 50.0634C99.7715 50.3384 99.651 50.7482 99.651 51.2929C99.651 51.8377 99.7715 52.2507 100.013 52.532C100.131 52.6698 100.28 52.7793 100.447 52.852C100.615 52.9248 100.797 52.959 100.98 52.952Z" fill="#151515"/>
<path d="M104.078 54.6638V52.9121H104.566C104.777 52.5925 104.926 52.2379 105.007 51.8658C105.105 51.3949 105.15 50.9151 105.144 50.4345V49.1436H108.349V52.9121H109.06V54.6638H108.367V53.5263H104.771V54.6638H104.078ZM105.331 52.9197H107.595V49.7578H105.858V50.5786C105.859 51.0104 105.814 51.4411 105.725 51.8639C105.648 52.2347 105.512 52.5912 105.321 52.9197H105.331Z" fill="#151515"/>
<path d="M112.095 53.5858C111.683 53.5959 111.277 53.5004 110.916 53.309C110.583 53.1223 110.314 52.8439 110.143 52.509C109.95 52.1222 109.856 51.6958 109.868 51.2661C109.856 50.8444 109.951 50.4264 110.147 50.0499C110.326 49.723 110.599 49.4542 110.933 49.2767C111.292 49.0924 111.693 49.0004 112.099 49.0094C112.391 49.0087 112.682 49.0578 112.957 49.1545C113.214 49.2387 113.447 49.3814 113.635 49.5707L113.356 50.1339C113.191 49.9751 112.993 49.851 112.776 49.7693C112.578 49.693 112.367 49.6528 112.154 49.6509C111.958 49.641 111.762 49.6732 111.581 49.7452C111.4 49.8171 111.237 49.927 111.104 50.0671C110.851 50.3458 110.725 50.7487 110.725 51.2756C110.695 51.7165 110.829 52.1531 111.104 52.5051C111.235 52.6488 111.397 52.7621 111.578 52.8365C111.76 52.9108 111.957 52.9444 112.154 52.9347C112.364 52.9324 112.572 52.8936 112.769 52.8202C112.988 52.7406 113.189 52.6185 113.358 52.4612L113.637 53.0149C113.445 53.2088 113.208 53.3549 112.945 53.4407C112.672 53.536 112.385 53.585 112.095 53.5858Z" fill="#151515"/>
<path d="M114.713 53.5866V49.1436H115.513V50.9811H116.33L117.777 49.1436H118.663L116.982 51.3017L116.769 51.056C116.925 51.0685 117.077 51.1116 117.216 51.1827C117.352 51.261 117.474 51.3609 117.577 51.4784C117.718 51.6416 117.845 51.8163 117.956 52.0006L118.887 53.5809H118.01L117.196 52.2119C117.124 52.0768 117.034 51.9521 116.928 51.8413C116.845 51.7547 116.743 51.6888 116.629 51.6493C116.494 51.6113 116.353 51.5938 116.213 51.5974H115.513V53.5752L114.713 53.5866Z" fill="#151515"/>
<path d="M121.715 53.5858C121.317 53.5956 120.923 53.5 120.575 53.309C120.253 53.1229 119.993 52.8482 119.827 52.5186C119.641 52.1399 119.55 51.7229 119.562 51.3025C119.549 50.8789 119.64 50.4586 119.827 50.0768C119.993 49.7471 120.253 49.4725 120.575 49.2864C120.923 49.0945 121.317 48.9989 121.715 49.0096C122.114 48.9994 122.509 49.095 122.858 49.2864C123.181 49.4709 123.441 49.746 123.605 50.0768C123.789 50.4559 123.879 50.8727 123.868 51.2929C123.879 51.7163 123.789 52.1362 123.605 52.5186C123.441 52.8493 123.181 53.1245 122.858 53.309C122.509 53.4995 122.114 53.5951 121.715 53.5858ZM121.715 52.952C121.898 52.9585 122.08 52.9241 122.247 52.8514C122.415 52.7787 122.563 52.6695 122.682 52.532C122.926 52.2494 123.048 51.8364 123.048 51.2929C123.048 50.7495 122.926 50.3396 122.682 50.0635C122.562 49.928 122.413 49.8206 122.246 49.7493C122.078 49.678 121.897 49.6444 121.715 49.651C121.533 49.6441 121.351 49.6776 121.184 49.7489C121.016 49.8203 120.867 49.9278 120.748 50.0635C120.508 50.3384 120.388 50.7482 120.388 51.2929C120.388 51.8377 120.508 52.2507 120.748 52.532C120.866 52.6697 121.015 52.779 121.182 52.8518C121.35 52.9245 121.532 52.9588 121.715 52.952Z" fill="#151515"/>
<path d="M125.08 53.5768V49.1233H125.836V52.8262H125.588L128.429 49.1329H129.119V53.5865H128.364V49.8854H128.619L125.77 53.5865L125.08 53.5768ZM127.1 48.7172C126.854 48.72 126.609 48.6748 126.382 48.5844C126.167 48.499 125.976 48.3674 125.822 48.1995C125.658 48.0167 125.538 47.8002 125.472 47.5663L125.944 47.3969C126.026 47.6438 126.181 47.8615 126.39 48.0224C126.599 48.1583 126.848 48.2257 127.1 48.2149C127.353 48.2226 127.604 48.1555 127.818 48.0224C128.036 47.859 128.206 47.6417 128.31 47.3931L128.755 47.5528C128.64 47.9068 128.408 48.2143 128.097 48.4285C127.801 48.6191 127.454 48.7197 127.1 48.7172Z" fill="#151515"/>
<path d="M133.023 53.5866V49.1436H133.705L135.378 52.0506L137.058 49.1436H137.736V53.5866H137.013V50.046H137.209L135.58 52.8724H135.175L133.548 50.0364H133.745V53.5866H133.023Z" fill="#151515"/>
<path d="M141.243 53.5865C140.535 53.5865 139.975 53.3841 139.564 52.9793C139.154 52.5764 138.95 52.0247 138.95 51.3106C138.939 50.8894 139.031 50.472 139.22 50.0943C139.388 49.7635 139.648 49.4867 139.969 49.2963C140.306 49.1005 140.692 49.0014 141.083 49.0099C141.446 48.9978 141.806 49.0878 142.119 49.2695C142.405 49.4426 142.631 49.6985 142.766 50.0027C142.922 50.357 142.997 50.7409 142.988 51.1273V51.3908H139.578V50.9154H142.439L142.289 51.0299C142.312 50.6511 142.204 50.2758 141.982 49.9664C141.873 49.8376 141.735 49.7359 141.579 49.6696C141.423 49.6033 141.253 49.5742 141.083 49.5846C140.893 49.5745 140.703 49.6094 140.529 49.6864C140.355 49.7634 140.202 49.8803 140.082 50.0275C139.832 50.379 139.708 50.8043 139.732 51.2342V51.3144C139.732 51.8528 139.867 52.2595 140.136 52.5345C140.284 52.6765 140.46 52.7865 140.653 52.8575C140.846 52.9285 141.051 52.9589 141.257 52.9469C141.509 52.9495 141.76 52.9114 142 52.8342C142.244 52.7497 142.469 52.6201 142.664 52.4523L142.93 53.0061C142.713 53.1966 142.457 53.3397 142.181 53.4261C141.879 53.5311 141.563 53.5854 141.243 53.5865Z" fill="#151515"/>
<path d="M143.795 54.6638V52.9121H144.295C144.511 52.5925 144.664 52.2379 144.747 51.8658C144.847 51.3949 144.894 50.9151 144.887 50.4345V49.1436H148.183V52.9121H148.911V54.6638H148.183V53.5263H144.515V54.6638H143.795ZM145.079 52.9197H147.392V49.7578H145.611V50.5786C145.612 51.0104 145.566 51.4411 145.475 51.8639C145.402 52.2337 145.269 52.5902 145.079 52.9197Z" fill="#151515"/>
<path d="M149.855 53.577V49.1436H150.611V52.8298H150.366L153.204 49.1531H153.895V53.5866H153.139V49.9023H153.394L150.548 53.5866L149.855 53.577Z" fill="#151515"/>
<path d="M159.263 54.7984V53.634H155.375V49.1436H156.18V53.0015H158.433V49.1436H159.237V53.0015H159.953V54.7946L159.263 54.7984Z" fill="#151515"/>
<path d="M161.029 53.577V49.1436H161.785V52.8298H161.539L164.376 49.1531H165.068V53.5866H164.313V49.9023H164.568L161.721 53.5866L161.029 53.577Z" fill="#151515"/>
<path d="M166.549 53.5866V49.1436H167.368V50.9811H169.774V49.1436H170.588V53.5866H169.774V51.6166H167.368V53.5866H166.549Z" fill="#151515"/>
<path d="M174.034 53.5858C173.622 53.5959 173.214 53.5004 172.853 53.309C172.519 53.1229 172.249 52.8443 172.079 52.509C171.885 52.1224 171.79 51.696 171.802 51.2661C171.79 50.8442 171.886 50.4262 172.083 50.0499C172.26 49.7249 172.53 49.4564 172.861 49.2767C173.22 49.0924 173.623 49.0004 174.03 49.0094C174.323 49.0087 174.614 49.0578 174.89 49.1545C175.147 49.2387 175.38 49.3814 175.569 49.5707L175.287 50.1339C175.122 49.9755 174.925 49.8515 174.709 49.7693C174.509 49.6928 174.297 49.6526 174.083 49.6509C173.887 49.6413 173.692 49.6736 173.51 49.7456C173.329 49.8175 173.166 49.9273 173.034 50.0671C172.779 50.3458 172.653 50.7487 172.654 51.2756C172.624 51.7165 172.759 52.1531 173.034 52.5051C173.164 52.6487 173.326 52.7618 173.508 52.8362C173.689 52.9106 173.886 52.9442 174.083 52.9347C174.294 52.9328 174.502 52.8941 174.699 52.8202C174.919 52.7411 175.12 52.6189 175.289 52.4612L175.571 53.0149C175.378 53.2088 175.141 53.3549 174.878 53.4407C174.607 53.5348 174.321 53.5838 174.034 53.5858Z" fill="#151515"/>
<path d="M176.646 53.5866V49.1436H177.461V50.9811H178.275L179.722 49.1436H180.607L178.918 51.3017L178.702 51.056C178.858 51.0681 179.01 51.1112 179.149 51.1827C179.286 51.2604 179.409 51.3604 179.513 51.4784C179.652 51.6426 179.779 51.8172 179.891 52.0006L180.82 53.5809H179.946L179.132 52.2119C179.06 52.0768 178.97 51.9521 178.864 51.8413C178.781 51.7547 178.678 51.6888 178.564 51.6493C178.429 51.6115 178.289 51.594 178.149 51.5974H177.461V53.5752L176.646 53.5866Z" fill="#151515"/>
<path d="M181.629 53.577V49.1436H182.384V52.8298H182.139L184.976 49.1531H185.668V53.5866H184.923V49.9023H185.178L182.331 53.5866L181.629 53.577Z" fill="#151515"/>
<path d="M187.148 53.5768V49.1288H187.903V52.8272H187.662L190.496 49.1385H191.188V53.5865H190.427V49.89H190.682L187.838 53.5865L187.148 53.5768ZM189.165 48.7232C188.921 48.7278 188.679 48.6854 188.452 48.5983C188.238 48.5126 188.047 48.3812 187.893 48.2139C187.731 48.0304 187.611 47.8145 187.543 47.5814L188.016 47.4123C188.098 47.6522 188.249 47.8638 188.452 48.0216C188.66 48.1579 188.908 48.2253 189.159 48.2139C189.413 48.2218 189.664 48.1548 189.878 48.0216C190.097 47.8588 190.266 47.6417 190.368 47.3931L190.814 47.5526C190.698 47.9064 190.467 48.2135 190.155 48.4272C189.862 48.6193 189.518 48.7223 189.165 48.7232Z" fill="#151515"/>
<path d="M198.981 54.7984V53.634H195.092V49.1436H195.897V53.0015H198.149V49.1436H198.954V53.0015H199.67V54.7946L198.981 54.7984Z" fill="#151515"/>
<path d="M202.774 53.5865C202.065 53.5865 201.506 53.3843 201.096 52.9801C200.684 52.5777 200.48 52.0266 200.48 51.3134C200.467 50.8913 200.559 50.4726 200.745 50.093C200.915 49.7629 201.174 49.4867 201.495 49.2959C201.833 49.1001 202.22 49.001 202.612 49.0099C202.975 48.9978 203.334 49.0877 203.648 49.2692C203.934 49.4432 204.159 49.6984 204.295 50.0015C204.45 50.3556 204.526 50.7388 204.517 51.1246V51.3878H201.109V50.913H203.97L203.82 51.0274C203.843 50.6491 203.735 50.2742 203.513 49.9652C203.404 49.8366 203.266 49.7351 203.11 49.6688C202.955 49.6026 202.785 49.5735 202.616 49.5839C202.425 49.5736 202.235 49.6084 202.061 49.6853C201.887 49.7623 201.734 49.8791 201.614 50.0262C201.361 50.3762 201.236 50.8014 201.26 51.2314V51.3115C201.26 51.8493 201.393 52.265 201.662 52.5301C201.81 52.6716 201.986 52.7812 202.179 52.8521C202.372 52.923 202.578 52.9536 202.783 52.9419C203.036 52.9447 203.287 52.9067 203.527 52.8295C203.771 52.745 203.996 52.6156 204.191 52.4481L204.457 53.0011C204.24 53.1909 203.986 53.3338 203.71 53.4206C203.409 53.527 203.093 53.5831 202.774 53.5865Z" fill="#151515"/>
<path d="M205.729 53.5866V49.1436H206.538V50.9811H208.951V49.1436H209.768V53.5866H208.951V51.6166H206.538V53.5866H205.729Z" fill="#151515"/>
<path d="M212.195 53.5866V49.7887H210.576V49.1436H214.615V49.7887H212.999V53.5866H212.195Z" fill="#151515"/>
<path d="M215.495 55.4715V50.1459C215.495 49.9742 215.495 49.7986 215.477 49.6211C215.459 49.4436 215.445 49.2661 215.422 49.0886H216.218L216.317 50.1189H216.218C216.301 49.7869 216.507 49.4971 216.796 49.3066C217.11 49.103 217.48 48.9993 217.856 49.0095C218.228 49.0013 218.595 49.097 218.914 49.2854C219.222 49.4762 219.466 49.7521 219.614 50.0784C219.79 50.4681 219.875 50.8912 219.864 51.3172C219.875 51.7444 219.79 52.1687 219.614 52.5598C219.467 52.8883 219.223 53.1664 218.914 53.3586C218.595 53.547 218.228 53.6427 217.856 53.6345C217.485 53.6434 217.119 53.5396 216.81 53.3374C216.523 53.1453 216.315 52.8606 216.22 52.5328H216.319V55.4715H215.495ZM217.658 52.9939C217.845 53.0015 218.032 52.9672 218.205 52.8936C218.377 52.8201 218.53 52.7093 218.653 52.5694C218.9 52.2839 219.022 51.8671 219.022 51.3172C219.022 50.7673 218.9 50.3524 218.653 50.0746C218.529 49.9368 218.375 49.8278 218.203 49.7557C218.031 49.6836 217.845 49.6501 217.658 49.6578C217.472 49.6508 217.288 49.6846 217.118 49.7567C216.948 49.8288 216.796 49.9375 216.674 50.0746C216.425 50.3486 216.301 50.7628 216.301 51.3172C216.301 51.8716 216.423 52.289 216.667 52.5694C216.789 52.7107 216.942 52.8225 217.116 52.8961C217.289 52.9697 217.477 53.0032 217.666 52.9939H217.658Z" fill="#151515"/>
<path d="M11.1789 44.9411C11.0967 42.8941 12.6737 41.7964 13.3903 44.8054C14.1069 47.8145 15.0803 54.5287 15.0803 54.5287C15.0803 54.5287 11.297 53.866 11.3381 53.5973C11.3792 53.3286 11.1789 44.9411 11.1789 44.9411Z" fill="#00578A"/>
<path d="M7.5428 40.0185C7.44217 37.4912 9.39804 36.1473 10.2857 39.8502C11.1733 43.5531 12.3861 51.8362 12.3861 51.8362C12.3861 51.8362 7.68987 51.0201 7.74148 50.6886C7.79308 50.3571 7.5428 40.0185 7.5428 40.0185Z" fill="#007D99"/>
<path d="M3.88815 36.3913C3.77708 33.5803 5.90761 32.0802 6.8719 36.2048C7.83619 40.3293 9.15641 49.5471 9.15641 49.5471C9.15641 49.5471 3.0425 43.1583 3.09803 42.7954C3.15357 42.4325 3.88815 36.3913 3.88815 36.3913Z" fill="#01A6A0"/>
<path d="M28.5765 73.1089C27.7136 59.5526 13.6377 59.4668 7.59469 54.6587C1.55169 49.8507 0.224122 37.5779 0.596863 34.8243C0.969603 32.0707 2.43248 30.7105 3.64772 34.5564C4.86295 38.4023 5.99904 45.3285 10.5843 48.5288C15.1695 51.729 23.7607 52.1501 18.8714 48.6155C12.4888 44.0014 13.5941 39.5417 15.1101 38.609C16.2695 37.8959 18.9837 42.8887 22.7647 44.9278C26.5457 46.9669 32.2024 48.5709 34.8193 54.923C37.7941 62.1439 28.5765 73.1089 28.5765 73.1089Z" fill="#00C6BF"/>
<path d="M57.2616 6.02682C53.0957 3.1813 46.1738 1.55313 39.3819 5.92476C36.6284 8.54825 34.3134 12.1032 32.7531 16.7198C32.7531 16.7198 24.768 7.92801 11.9924 12.7233C-0.783225 17.5185 0.00966736 31.371 0.00966736 31.371C0.00966736 31.371 3.68607 20.0911 15.9798 19.3765C28.2736 18.6619 34.6748 30.5147 34.6748 30.5147C34.6748 30.5147 36.2357 18.5062 47.3848 15.6479C57.667 13.0219 63.8547 21.1042 61.2542 31.1643C65.6852 20.9256 63.8827 10.5465 57.2616 6.02682Z" fill="#00578A"/>
<path d="M52.2402 48.9835C52.2402 48.9835 41.7148 36.4876 23.1582 43.1603C23.1582 43.1603 32.6414 42.9591 36.9605 53.7892C39.6482 60.528 33.1253 70.4159 33.1253 70.4159C33.1253 70.4159 44.5943 60.9892 52.2402 48.9835Z" fill="#00578A"/>
<path d="M71.3442 8.42509C65.0524 -0.83138 49.3254 -3.57641 39.3519 5.89651C46.1489 1.53438 53.076 3.15902 57.245 5.99835C63.8787 10.5082 65.6647 20.8545 61.2508 31.0863C60.9792 32.1239 60.6312 33.1402 60.2098 34.1268C55.9591 44.1294 50.8869 50.4956 50.8869 50.4956C43.4648 61.7001 32.8516 70.5508 32.8516 70.5508C73.9601 53.3264 82.1291 24.305 71.3442 8.42509Z" fill="#00C6BF"/>
<path style="mix-blend-mode:multiply" opacity="0.29" d="M56.6412 16.5777C62.147 19.9571 62.2475 26.7865 61.134 31.1017C65.5422 20.8725 63.7449 10.5287 57.1428 6.02004C52.9889 3.18142 46.0868 1.5572 39.3145 5.91823C44.7852 2.73338 57.5208 0.146802 56.6412 16.5777Z" fill="#00578A"/>
<path style="mix-blend-mode:multiply" opacity="0.29" d="M48.4875 45.6426C46.2541 53.6628 37.1416 66.439 33.1211 70.4161C33.1211 70.4161 42.8591 62.485 52.2398 48.7616C51.0784 47.6922 49.8276 46.5337 48.4875 45.6426Z" fill="#00578A"/>
</svg>
