<svg width="32" height="32" viewBox="0 0 32 32" fill="none" xmlns="http://www.w3.org/2000/svg">
<path d="M16.7709 10.1972L18.8335 12.2508C18.8112 12.4288 18.7635 12.6741 18.6635 12.9812C18.3855 13.8348 17.6872 15.2154 15.9251 16.9775C14.171 18.7316 12.8061 19.3749 11.9762 19.6104C11.6565 19.7011 11.4066 19.734 11.2327 19.7439L9.22639 17.7376C8.44534 16.9566 7.17901 16.9566 6.39796 17.7376L3.56954 20.5661C2.78849 21.3471 2.78849 22.6134 3.56954 23.3945L6.36479 26.1897C6.988 26.8129 7.94566 27.1378 8.90347 26.8314C10.5847 26.2936 14.5854 24.6351 19.1259 20.0947C23.6663 15.5542 25.3249 11.5535 25.8627 9.87224C26.1691 8.91443 25.8442 7.95676 25.221 7.33356L22.4257 4.5383C21.6447 3.75725 20.3783 3.75725 19.5973 4.5383L16.7689 7.36673C15.9878 8.14778 15.9878 9.41411 16.7689 10.1952L16.7709 10.1972Z" fill="#4F4F4F"/>
</svg>
