<svg width="148" height="50" viewBox="0 0 148 50" fill="none" xmlns="http://www.w3.org/2000/svg">
<path d="M139.547 13.8579V23.8736L125.049 23.8762V13.8579H120.646V28.7389H121.16C126.394 28.7363 131.627 28.7311 136.86 28.7234C137.877 28.722 138.895 28.719 139.912 28.716C141.291 28.7119 142.67 28.7078 144.049 28.7079V30.4332H148V23.8328H144.091C144.035 23.7456 144.035 23.5892 144.035 23.3086V14.4502C144.035 14.3073 144.026 14.1631 144.017 14.0266C144.014 13.9688 144.01 13.9123 144.008 13.8579H139.547Z" fill="#00578A"/>
<path d="M88.5869 19.7147V28.6929H84.1445V13.8628C85.312 13.8628 86.4627 13.8628 87.6121 13.8693C87.7725 13.8939 87.927 13.9477 88.0681 14.0282C92.0331 15.7143 95.9956 17.4052 99.9555 19.1008C100.114 19.1757 100.287 19.2131 100.462 19.2102C100.637 19.2073 100.809 19.1641 100.965 19.084C104.801 17.3858 108.642 15.6993 112.488 14.0244C112.724 13.924 112.978 13.87 113.235 13.8654C114.274 13.8486 115.312 13.8654 116.389 13.8654V28.7123H111.969V19.7638C111.727 19.8607 111.564 19.9202 111.408 19.99C107.943 21.5236 104.48 23.0607 101.019 24.6012C100.865 24.6822 100.694 24.7262 100.52 24.7298C100.347 24.7334 100.174 24.6965 100.017 24.6219C96.41 23.0521 92.7973 21.4934 89.179 19.946C89.0043 19.8646 88.8232 19.8052 88.5869 19.7147Z" fill="#00578A"/>
<path d="M56.6094 13.8579H80.0571V14.5809C80.0571 15.7367 80.0327 16.8925 80.0674 18.0482C80.0829 18.535 79.9118 18.6377 79.4551 18.6364C73.5555 18.6227 67.6559 18.6197 61.7564 18.6274H61.0488V28.5311H56.6094V13.8579Z" fill="#00578A"/>
<path d="M56.5195 36.0489V33.0599H58.6933V33.494H57.0729V36.0489H56.5195Z" fill="#151515"/>
<path d="M60.5954 36.0483C60.3277 36.0549 60.0631 35.9906 59.8291 35.8621C59.6126 35.7369 59.4376 35.5521 59.3257 35.3304C59.2006 35.0757 59.1391 34.7952 59.1462 34.5123C59.1384 34.2272 59.2 33.9444 59.3257 33.6877C59.4376 33.4659 59.6126 33.2812 59.8291 33.156C60.0629 33.0269 60.3276 32.9626 60.5954 32.9698C60.8639 32.9631 61.1293 33.0274 61.3642 33.156C61.5813 33.2801 61.7561 33.4652 61.8663 33.6877C61.99 33.9428 62.0507 34.2232 62.0433 34.5058C62.0509 34.7906 61.9903 35.0731 61.8663 35.3304C61.7561 35.5529 61.5813 35.738 61.3642 35.8621C61.1291 35.9901 60.8638 36.0544 60.5954 36.0483ZM60.5954 35.6219C60.7184 35.6263 60.8408 35.6032 60.9534 35.5543C61.066 35.5053 61.166 35.4319 61.2458 35.3394C61.4097 35.1493 61.4917 34.8715 61.4917 34.5058C61.4917 34.1402 61.4097 33.8645 61.2458 33.6787C61.1651 33.5876 61.0649 33.5154 60.9524 33.4674C60.8398 33.4194 60.7179 33.3968 60.5954 33.4013C60.4728 33.3966 60.3508 33.4191 60.2383 33.4671C60.1257 33.5152 60.0255 33.5875 59.9449 33.6787C59.7836 33.8637 59.7029 34.1394 59.7029 34.5058C59.7029 34.8723 59.7836 35.1502 59.9449 35.3394C60.0246 35.432 60.1245 35.5056 60.2372 35.5545C60.3499 35.6035 60.4724 35.6265 60.5954 35.6219Z" fill="#151515"/>
<path d="M62.9085 37.3169V33.7342C62.9085 33.6187 62.9085 33.5006 62.8952 33.3812C62.8819 33.2617 62.8753 33.1423 62.8594 33.0229H63.3899L63.4563 33.7161H63.3899C63.4457 33.4927 63.5848 33.2977 63.7799 33.1696C63.9911 33.0327 64.2403 32.9629 64.4935 32.9697C64.7445 32.9642 64.992 33.0286 65.2071 33.1553C65.4152 33.2836 65.5799 33.4692 65.6806 33.6888C65.798 33.9512 65.8551 34.2357 65.8477 34.5222C65.8549 34.8094 65.7979 35.0947 65.6806 35.3581C65.5808 35.5793 65.4159 35.7663 65.2071 35.8955C64.992 36.0222 64.7445 36.0866 64.4935 36.0811C64.2433 36.0869 63.9974 36.0171 63.7892 35.8812C63.5958 35.752 63.455 35.5604 63.3913 35.3399H63.4576V37.3169H62.9085ZM64.3675 35.6501C64.4941 35.6552 64.6203 35.6321 64.7365 35.5827C64.8528 35.5332 64.956 35.4587 65.0386 35.3646C65.2049 35.1725 65.288 34.8917 65.288 34.5222C65.288 34.1526 65.2049 33.874 65.0386 33.6862C64.9552 33.5935 64.8516 33.5202 64.7355 33.4717C64.6194 33.4232 64.4936 33.4007 64.3675 33.4058C64.2426 33.4011 64.1181 33.4239 64.0034 33.4724C63.8886 33.5209 63.7864 33.594 63.7043 33.6862C63.5398 33.8731 63.4576 34.1518 63.4576 34.5222C63.4576 34.8925 63.5398 35.1733 63.7043 35.3646C63.7861 35.4589 63.8889 35.5337 64.0047 35.5832C64.1206 35.6327 64.2465 35.6556 64.3728 35.6501H64.3675Z" fill="#151515"/>
<path d="M67.931 36.0484C67.6634 36.0547 67.3988 35.9904 67.1648 35.8621C66.949 35.7363 66.7746 35.5517 66.6626 35.3304C66.5375 35.0757 66.476 34.7952 66.4831 34.5123C66.4753 34.2272 66.5369 33.9444 66.6626 33.6877C66.7746 33.4664 66.949 33.2818 67.1648 33.156C67.3986 33.0271 67.6633 32.9628 67.931 32.9698C68.1996 32.9629 68.4651 33.0272 68.6999 33.156C68.9173 33.2801 69.0926 33.4651 69.2034 33.6877C69.3267 33.9429 69.3873 34.2232 69.3803 34.5058C69.3873 34.7906 69.3267 35.0729 69.2034 35.3304C69.0926 35.5529 68.9173 35.738 68.6999 35.8621C68.4648 35.9903 68.1995 36.0546 67.931 36.0484ZM67.931 35.6219C68.054 35.6263 68.1764 35.6032 68.2891 35.5543C68.4017 35.5053 68.5017 35.4319 68.5815 35.3394C68.7446 35.1493 68.8261 34.8715 68.8261 34.5058C68.8261 34.1402 68.7446 33.8645 68.5815 33.6787C68.5008 33.5877 68.4005 33.5155 68.288 33.4675C68.1755 33.4195 68.0535 33.3969 67.931 33.4013C67.8085 33.3965 67.6864 33.419 67.5739 33.467C67.4613 33.515 67.3611 33.5874 67.2806 33.6787C67.1184 33.8637 67.0373 34.1394 67.0373 34.5058C67.0373 34.8723 67.1184 35.1502 67.2806 35.3394C67.3602 35.4321 67.4601 35.5057 67.5728 35.5547C67.6855 35.6036 67.808 35.6266 67.931 35.6219Z" fill="#151515"/>
<path d="M70.0156 36.7735V35.5952H70.3441C70.4855 35.3801 70.5858 35.1416 70.6402 34.8912C70.7061 34.5745 70.737 34.2517 70.7324 33.9284V33.0599H72.8891V35.5952H73.3669V36.7735H72.9008V36.0084H70.4818V36.7735H70.0156ZM70.8583 35.6003H72.3814V33.4731H71.2128V34.0253C71.2135 34.3158 71.1835 34.6056 71.1232 34.89C71.072 35.1395 70.9803 35.3793 70.8518 35.6003H70.8583Z" fill="#151515"/>
<path d="M75.4086 36.0483C75.132 36.0551 74.8584 35.9909 74.6155 35.8621C74.3914 35.7365 74.2106 35.5492 74.096 35.3239C73.966 35.0637 73.9025 34.7769 73.9109 34.4878C73.9023 34.2041 73.9669 33.9229 74.0986 33.6696C74.2187 33.4497 74.4026 33.2689 74.6274 33.1494C74.8686 33.0255 75.1384 32.9636 75.4112 32.9696C75.6082 32.9692 75.8037 33.0022 75.9889 33.0673C76.1617 33.1239 76.3181 33.2199 76.4449 33.3472L76.2572 33.7261C76.1459 33.6193 76.0132 33.5358 75.8673 33.4808C75.7338 33.4295 75.5918 33.4025 75.4482 33.4012C75.3166 33.3946 75.1851 33.4162 75.0631 33.4646C74.9411 33.513 74.8316 33.5869 74.7424 33.6812C74.5723 33.8687 74.4872 34.1397 74.4872 34.4942C74.4669 34.7908 74.5575 35.0845 74.7424 35.3213C74.8301 35.418 74.9391 35.4942 75.0613 35.5442C75.1835 35.5942 75.3158 35.6168 75.4482 35.6103C75.5898 35.6087 75.7299 35.5827 75.862 35.5333C76.0097 35.4797 76.1446 35.3976 76.2586 35.2918L76.4463 35.6643C76.3171 35.7947 76.1575 35.893 75.981 35.9507C75.7973 36.0148 75.6037 36.0478 75.4086 36.0483Z" fill="#151515"/>
<path d="M77.1709 36.0489V33.0599H77.7095V34.2961H78.2585L79.2323 33.0599H79.8284L78.6977 34.5118L78.5539 34.3465C78.6588 34.3549 78.761 34.3839 78.8546 34.4317C78.9461 34.4844 79.0282 34.5516 79.0977 34.6306C79.1925 34.7404 79.2778 34.858 79.3526 34.982L79.9787 36.0451H79.3892L78.8415 35.1241C78.7932 35.0332 78.7325 34.9493 78.6611 34.8748C78.6053 34.8165 78.5363 34.7722 78.4598 34.7456C78.3689 34.7201 78.2745 34.7083 78.18 34.7107H77.7095V36.0412L77.1709 36.0489Z" fill="#151515"/>
<path d="M81.8809 36.0483C81.6131 36.0549 81.3484 35.9906 81.1143 35.8621C80.8977 35.7369 80.7227 35.5521 80.6107 35.3304C80.486 35.0756 80.4249 34.7951 80.4324 34.5123C80.4242 34.2273 80.4853 33.9445 80.6107 33.6877C80.7227 33.4659 80.8977 33.2812 81.1143 33.156C81.3482 33.0269 81.613 32.9626 81.8809 32.9698C82.1495 32.963 82.4151 33.0273 82.65 33.156C82.8672 33.2801 83.0421 33.4652 83.1524 33.6877C83.2761 33.9428 83.3368 34.2232 83.3294 34.5058C83.3371 34.7906 83.2764 35.0731 83.1524 35.3304C83.0421 35.5529 82.8672 35.738 82.65 35.8621C82.4149 35.9903 82.1495 36.0545 81.8809 36.0483ZM81.8809 35.6219C82.0039 35.6263 82.1264 35.6032 82.2391 35.5543C82.3518 35.5053 82.4518 35.4319 82.5316 35.3394C82.6956 35.1493 82.7776 34.8715 82.7776 34.5058C82.7776 34.1402 82.6956 33.8645 82.5316 33.6787C82.4509 33.5876 82.3506 33.5154 82.238 33.4674C82.1254 33.4194 82.0034 33.3968 81.8809 33.4013C81.7583 33.3966 81.6362 33.4191 81.5236 33.4671C81.411 33.5152 81.3107 33.5875 81.2302 33.6787C81.0688 33.8637 80.9881 34.1394 80.9881 34.5058C80.9881 34.8723 81.0688 35.1502 81.2302 35.3394C81.3099 35.432 81.4099 35.5056 81.5226 35.5545C81.6353 35.6035 81.7578 35.6265 81.8809 35.6219Z" fill="#151515"/>
<path d="M84.1445 36.0424V33.0464H84.6529V35.5375H84.4865L86.3974 33.0529H86.8618V36.0489H86.3535V33.5591H86.5251L84.6089 36.0489L84.1445 36.0424ZM85.5032 32.7732C85.3376 32.7751 85.1734 32.7447 85.0201 32.6839C84.876 32.6264 84.7473 32.5379 84.6435 32.4249C84.5331 32.302 84.4526 32.1564 84.408 31.999L84.726 31.885C84.7807 32.0511 84.885 32.1976 85.0254 32.3058C85.1665 32.3972 85.3338 32.4426 85.5032 32.4353C85.6739 32.4405 85.8423 32.3954 85.9862 32.3058C86.1334 32.1959 86.2478 32.0497 86.3175 31.8824L86.6169 31.9899C86.5392 32.228 86.3836 32.4349 86.1738 32.579C85.9751 32.7073 85.7416 32.7749 85.5032 32.7732Z" fill="#151515"/>
<path d="M89.4893 36.0489V33.0599H89.948L91.073 35.0156L92.2033 33.0599H92.6594V36.0489H92.1729V33.667H92.3051L91.2092 35.5684H90.9368L89.8422 33.6606H89.9744V36.0489H89.4893Z" fill="#151515"/>
<path d="M95.0178 36.0488C94.5412 36.0488 94.1647 35.9126 93.8884 35.6403C93.6125 35.3693 93.4752 34.9981 93.4752 34.5177C93.4677 34.2344 93.5299 33.9536 93.6565 33.6995C93.7699 33.4769 93.9446 33.2908 94.1604 33.1626C94.3876 33.0309 94.6472 32.9643 94.9103 32.97C95.1546 32.9618 95.3961 33.0224 95.6071 33.1446C95.7996 33.2611 95.9515 33.4332 96.0423 33.6379C96.1471 33.8762 96.198 34.1345 96.1913 34.3944V34.5717H93.8975V34.2518H95.8221L95.7211 34.3289C95.737 34.0741 95.6643 33.8216 95.5152 33.6135C95.4416 33.5268 95.3485 33.4584 95.2435 33.4138C95.1385 33.3692 95.0244 33.3496 94.9103 33.3566C94.7823 33.3498 94.6544 33.3733 94.5374 33.4251C94.4203 33.4769 94.3172 33.5555 94.2368 33.6546C94.0682 33.891 93.9851 34.1771 94.0011 34.4663V34.5203C94.0011 34.8825 94.0917 35.1561 94.2731 35.3411C94.3725 35.4366 94.4908 35.5106 94.6206 35.5583C94.7503 35.6061 94.8887 35.6266 95.0269 35.6185C95.1966 35.6202 95.3654 35.5946 95.5268 35.5427C95.6908 35.4858 95.8424 35.3987 95.9737 35.2858L96.1524 35.6583C96.0063 35.7865 95.8346 35.8827 95.6486 35.9409C95.4459 36.0115 95.2327 36.048 95.0178 36.0488Z" fill="#151515"/>
<path d="M96.7344 36.7735V35.5952H97.0711C97.216 35.3801 97.3188 35.1416 97.3746 34.8912C97.4421 34.5745 97.4738 34.2517 97.4691 33.9284V33.0599H99.6864V35.5952H100.176V36.7735H99.6864V36.0084H97.2188V36.7735H96.7344ZM97.5982 35.6003H99.1541V33.4731H97.9562V34.0253C97.9569 34.3158 97.9261 34.6056 97.8644 34.89C97.8156 35.1388 97.7257 35.3786 97.5982 35.6003Z" fill="#151515"/>
<path d="M100.811 36.0425V33.0599H101.319V35.5398H101.154L103.063 33.0664H103.528V36.0489H103.019V33.5703H103.191L101.276 36.0489L100.811 36.0425Z" fill="#151515"/>
<path d="M107.14 36.8641V36.0808H104.524V33.0599H105.066V35.6553H106.581V33.0599H107.123V35.6553H107.604V36.8615L107.14 36.8641Z" fill="#151515"/>
<path d="M108.329 36.0425V33.0599H108.837V35.5398H108.672L110.581 33.0664H111.046V36.0489H110.538V33.5703H110.71L108.795 36.0489L108.329 36.0425Z" fill="#151515"/>
<path d="M112.042 36.0489V33.0599H112.593V34.2961H114.212V33.0599H114.759V36.0489H114.212V34.7236H112.593V36.0489H112.042Z" fill="#151515"/>
<path d="M117.076 36.0483C116.799 36.0551 116.525 35.9909 116.282 35.8621C116.057 35.7369 115.876 35.5495 115.762 35.3239C115.631 35.0638 115.567 34.777 115.575 34.4878C115.567 34.204 115.632 33.9228 115.764 33.6696C115.883 33.451 116.065 33.2704 116.287 33.1494C116.529 33.0255 116.8 32.9636 117.074 32.9696C117.271 32.9692 117.467 33.0022 117.652 33.0673C117.825 33.1239 117.982 33.2199 118.109 33.3472L117.92 33.7261C117.808 33.6196 117.676 33.5361 117.53 33.4808C117.396 33.4294 117.254 33.4024 117.109 33.4012C116.978 33.3947 116.846 33.4165 116.724 33.4649C116.602 33.5133 116.493 33.5871 116.404 33.6812C116.232 33.8687 116.147 34.1397 116.148 34.4942C116.128 34.7908 116.219 35.0845 116.404 35.3213C116.491 35.4179 116.6 35.494 116.723 35.5441C116.845 35.5941 116.977 35.6167 117.109 35.6103C117.251 35.6091 117.392 35.583 117.524 35.5333C117.672 35.4801 117.807 35.3979 117.921 35.2918L118.11 35.6643C117.981 35.7947 117.821 35.893 117.644 35.9507C117.462 36.014 117.27 36.047 117.076 36.0483Z" fill="#151515"/>
<path d="M118.836 36.0489V33.0599H119.384V34.2961H119.931L120.905 33.0599H121.5L120.364 34.5118L120.219 34.3465C120.324 34.3546 120.426 34.3836 120.52 34.4317C120.612 34.484 120.694 34.5512 120.764 34.6306C120.858 34.7411 120.943 34.8586 121.019 34.982L121.644 36.0451H121.056L120.508 35.1241C120.46 35.0332 120.399 34.9493 120.327 34.8748C120.272 34.8165 120.203 34.7722 120.126 34.7456C120.035 34.7202 119.941 34.7084 119.846 34.7107H119.384V36.0412L118.836 36.0489Z" fill="#151515"/>
<path d="M122.186 36.0425V33.0599H122.694V35.5398H122.529L124.437 33.0664H124.903V36.0489H124.401V33.5703H124.573L122.658 36.0489L122.186 36.0425Z" fill="#151515"/>
<path d="M125.9 36.0424V33.0501H126.408V35.5381H126.246L128.153 33.0566H128.618V36.0489H128.106V33.5622H128.277L126.364 36.0489L125.9 36.0424ZM127.257 32.7773C127.093 32.7804 126.93 32.7518 126.777 32.6932C126.634 32.6356 126.505 32.5472 126.401 32.4346C126.292 32.3112 126.212 32.166 126.166 32.0092L126.484 31.8954C126.539 32.0568 126.641 32.1991 126.777 32.3053C126.918 32.397 127.084 32.4423 127.253 32.4346C127.424 32.44 127.593 32.3949 127.737 32.3053C127.884 32.1958 127.997 32.0497 128.066 31.8824L128.367 31.9898C128.288 32.2278 128.133 32.4344 127.923 32.5782C127.726 32.7074 127.494 32.7766 127.257 32.7773Z" fill="#151515"/>
<path d="M133.861 36.8641V36.0808H131.244V33.0599H131.786V35.6553H133.301V33.0599H133.842V35.6553H134.324V36.8615L133.861 36.8641Z" fill="#151515"/>
<path d="M136.411 36.0488C135.934 36.0488 135.558 35.9128 135.283 35.6408C135.005 35.3701 134.868 34.9994 134.868 34.5196C134.86 34.2357 134.921 33.954 135.047 33.6986C135.161 33.4766 135.335 33.2907 135.551 33.1624C135.779 33.0306 136.039 32.964 136.302 32.97C136.547 32.9618 136.788 33.0223 137 33.1444C137.191 33.2615 137.343 33.4332 137.435 33.637C137.539 33.8753 137.59 34.1331 137.584 34.3926V34.5697H135.292V34.2502H137.216L137.115 34.3272C137.131 34.0727 137.058 33.8205 136.909 33.6127C136.835 33.5261 136.743 33.4578 136.638 33.4133C136.533 33.3687 136.419 33.3491 136.305 33.3561C136.177 33.3492 136.049 33.3726 135.932 33.4244C135.815 33.4761 135.712 33.5547 135.631 33.6537C135.461 33.8891 135.376 34.1752 135.393 34.4645V34.5183C135.393 34.8801 135.482 35.1598 135.664 35.3381C135.763 35.4333 135.882 35.5071 136.011 35.5548C136.141 35.6025 136.28 35.623 136.418 35.6152C136.587 35.617 136.756 35.5915 136.918 35.5395C137.082 35.4827 137.234 35.3956 137.365 35.2829L137.544 35.655C137.398 35.7827 137.227 35.8788 137.041 35.9372C136.839 36.0088 136.626 36.0465 136.411 36.0488Z" fill="#151515"/>
<path d="M138.399 36.0489V33.0599H138.944V34.2961H140.567V33.0599H141.117V36.0489H140.567V34.7236H138.944V36.0489H138.399Z" fill="#151515"/>
<path d="M142.749 36.0489V33.494H141.66V33.0599H144.377V33.494H143.29V36.0489H142.749Z" fill="#151515"/>
<path d="M144.97 37.3169V33.7342C144.97 33.6187 144.97 33.5006 144.958 33.3812C144.946 33.2617 144.937 33.1423 144.921 33.0229H145.457L145.523 33.7161H145.457C145.512 33.4927 145.651 33.2977 145.846 33.1696C146.057 33.0326 146.306 32.9629 146.559 32.9697C146.809 32.9642 147.056 33.0286 147.27 33.1553C147.477 33.2837 147.641 33.4693 147.741 33.6888C147.859 33.9509 147.917 34.2356 147.909 34.5222C147.917 34.8096 147.859 35.095 147.741 35.3581C147.642 35.5791 147.478 35.7662 147.27 35.8955C147.056 36.0222 146.809 36.0866 146.559 36.0811C146.309 36.0871 146.063 36.0173 145.855 35.8812C145.662 35.752 145.522 35.5604 145.458 35.3399H145.524V37.3169H144.97ZM146.425 35.6501C146.551 35.6552 146.677 35.6321 146.793 35.5827C146.909 35.5332 147.012 35.4587 147.094 35.3646C147.261 35.1725 147.343 34.8921 147.343 34.5222C147.343 34.1522 147.261 33.8731 147.094 33.6862C147.011 33.5935 146.908 33.5202 146.792 33.4717C146.676 33.4232 146.551 33.4007 146.425 33.4058C146.3 33.4011 146.176 33.4239 146.062 33.4724C145.947 33.5209 145.845 33.594 145.764 33.6862C145.596 33.8705 145.512 34.1492 145.512 34.5222C145.512 34.8951 145.594 35.1759 145.758 35.3646C145.84 35.4596 145.944 35.5348 146.06 35.5844C146.177 35.6339 146.303 35.6564 146.43 35.6501H146.425Z" fill="#151515"/>
<path d="M7.51966 30.233C7.46437 28.8559 8.52526 28.1174 9.00733 30.1417C9.4894 32.166 10.1443 36.6828 10.1443 36.6828C10.1443 36.6828 7.59914 36.237 7.62678 36.0562C7.65443 35.8755 7.51966 30.233 7.51966 30.233Z" fill="#00578A"/>
<path d="M5.07478 26.9212C5.00708 25.221 6.32285 24.3169 6.91999 26.808C7.51712 29.299 8.33297 34.8712 8.33297 34.8712C8.33297 34.8712 5.17372 34.3223 5.20844 34.0992C5.24315 33.8762 5.07478 26.9212 5.07478 26.9212Z" fill="#007D99"/>
<path d="M2.61479 24.4815C2.54007 22.5904 3.97334 21.5813 4.62204 24.356C5.27075 27.1307 6.15889 33.3317 6.15889 33.3317C6.15889 33.3317 2.0459 29.0338 2.08326 28.7897C2.12062 28.5455 2.61479 24.4815 2.61479 24.4815Z" fill="#01A6A0"/>
<path d="M19.2239 49.1825C18.6434 40.0627 9.1741 40.005 5.10882 36.7705C1.04353 33.536 0.150436 25.2798 0.401188 23.4273C0.651941 21.5749 1.63606 20.6599 2.45358 23.2471C3.2711 25.8344 4.03538 30.4938 7.11998 32.6467C10.2046 34.7996 15.9842 35.0829 12.6949 32.7051C8.40123 29.601 9.14475 26.6008 10.1647 25.9734C10.9446 25.4937 12.7705 28.8525 15.3141 30.2243C17.8577 31.596 21.6631 32.6751 23.4235 36.9483C25.4248 41.806 19.2239 49.1825 19.2239 49.1825Z" fill="#00C6BF"/>
<path d="M38.5215 4.05423C35.7189 2.13997 31.0624 1.04466 26.4932 3.98557C24.6409 5.75046 23.0836 8.14196 22.0339 11.2477C22.0339 11.2477 16.6621 5.33322 8.06762 8.55912C-0.526897 11.785 0.0065035 21.1039 0.0065035 21.1039C0.0065035 21.1039 2.47972 13.5156 10.7501 13.0349C19.0204 12.5542 23.3267 20.5279 23.3267 20.5279C23.3267 20.5279 24.3768 12.4494 31.877 10.5266C38.7941 8.75998 42.9568 14.1972 41.2073 20.9649C44.1882 14.077 42.9756 7.09472 38.5215 4.05423Z" fill="#00578A"/>
<path d="M35.1434 32.9527C35.1434 32.9527 28.0626 24.5463 15.5791 29.0352C15.5791 29.0352 21.9587 28.8999 24.8643 36.1855C26.6723 40.7189 22.2843 47.3708 22.2843 47.3708C22.2843 47.3708 29.9997 41.0292 35.1434 32.9527Z" fill="#00578A"/>
<path d="M47.9956 5.66779C43.763 -0.559292 33.183 -2.40595 26.4735 3.96674C31.0461 1.03222 35.7061 2.12516 38.5107 4.03525C42.9734 7.06913 44.1749 14.0294 41.2055 20.9126C41.0228 21.6106 40.7887 22.2943 40.5052 22.958C37.6457 29.687 34.2334 33.9698 34.2334 33.9698C29.2404 41.5074 22.1006 47.4614 22.1006 47.4614C49.7554 35.8741 55.2509 16.3506 47.9956 5.66779Z" fill="#00C6BF"/>
<path style="mix-blend-mode:multiply" opacity="0.29" d="M38.1044 11.1521C41.8083 13.4255 41.8759 18.0198 41.1269 20.9228C44.0924 14.0413 42.8832 7.08279 38.4419 4.04967C35.6474 2.14006 31.0042 1.0474 26.4482 3.98118C30.1286 1.83864 38.6962 0.0985823 38.1044 11.1521Z" fill="#00578A"/>
<path style="mix-blend-mode:multiply" opacity="0.29" d="M32.6187 30.7051C31.1161 36.1005 24.9859 44.6954 22.2812 47.3709C22.2812 47.3709 28.8323 42.0355 35.1429 32.8033C34.3616 32.0839 33.5202 31.3046 32.6187 30.7051Z" fill="#00578A"/>
</svg>
