<svg width="525" height="45" viewBox="0 0 525 45" fill="none" xmlns="http://www.w3.org/2000/svg">
<circle cx="22.5" cy="22.5" r="22" stroke="#CEDEE6"/>
<path d="M25 15L18 22L25 29" stroke="#141414" stroke-width="2" stroke-linecap="round"/>
<circle cx="91.5" cy="22.5" r="22" stroke="#CEDEE6"/>
<path d="M89.6991 27C89.4218 27 89.2031 26.9253 89.0431 26.776C88.8938 26.616 88.8191 26.4027 88.8191 26.136C88.8191 25.8587 88.8938 25.6507 89.0431 25.512C89.2031 25.3733 89.4218 25.304 89.6991 25.304H91.4911V17.448H92.4831L90.1311 18.872C89.9285 18.9893 89.7365 19.0373 89.5551 19.016C89.3845 18.984 89.2351 18.9093 89.1071 18.792C88.9898 18.664 88.9098 18.5147 88.8671 18.344C88.8245 18.1733 88.8351 18.0027 88.8991 17.832C88.9738 17.6507 89.1125 17.5013 89.3151 17.384L91.5231 16.056C91.7365 15.928 91.9498 15.8213 92.1631 15.736C92.3765 15.64 92.5738 15.592 92.7551 15.592C92.9791 15.592 93.1658 15.656 93.3151 15.784C93.4645 15.9013 93.5391 16.0987 93.5391 16.376V25.304H95.1711C95.4485 25.304 95.6618 25.3733 95.8111 25.512C95.9711 25.6507 96.0511 25.8587 96.0511 26.136C96.0511 26.4133 95.9711 26.6267 95.8111 26.776C95.6618 26.9253 95.4485 27 95.1711 27H89.6991Z" fill="#141414"/>
<circle cx="148.5" cy="22.5" r="21.5" stroke="#017CC1" stroke-width="2"/>
<path d="M146.331 27C145.99 27 145.739 26.9253 145.579 26.776C145.43 26.616 145.355 26.3867 145.355 26.088C145.355 25.9067 145.403 25.7307 145.499 25.56C145.595 25.3893 145.734 25.208 145.915 25.016L149.131 21.592C149.622 21.08 149.974 20.616 150.187 20.2C150.4 19.7733 150.507 19.3467 150.507 18.92C150.507 18.3867 150.336 17.9813 149.995 17.704C149.664 17.4267 149.179 17.288 148.539 17.288C148.176 17.288 147.814 17.3413 147.451 17.448C147.088 17.544 146.72 17.7147 146.347 17.96C146.155 18.088 145.974 18.1413 145.803 18.12C145.643 18.0987 145.499 18.0293 145.371 17.912C145.254 17.7947 145.174 17.6507 145.131 17.48C145.088 17.3093 145.094 17.1387 145.147 16.968C145.211 16.7867 145.339 16.632 145.531 16.504C145.99 16.1947 146.502 15.96 147.067 15.8C147.643 15.64 148.219 15.56 148.795 15.56C149.606 15.56 150.288 15.6827 150.843 15.928C151.398 16.1733 151.819 16.5307 152.107 17C152.395 17.4693 152.539 18.04 152.539 18.712C152.539 19.16 152.464 19.5973 152.315 20.024C152.176 20.4507 151.958 20.8827 151.659 21.32C151.371 21.7573 150.992 22.2213 150.523 22.712L147.515 25.848V25.304H152.219C152.507 25.304 152.726 25.3733 152.875 25.512C153.024 25.6507 153.099 25.8587 153.099 26.136C153.099 26.4133 153.024 26.6267 152.875 26.776C152.726 26.9253 152.507 27 152.219 27H146.331Z" fill="#017CC1"/>
<circle cx="205.5" cy="22.5" r="22" stroke="#CEDEE6"/>
<path d="M205.779 27.16C205.203 27.16 204.606 27.0853 203.987 26.936C203.368 26.7867 202.83 26.5627 202.371 26.264C202.158 26.1253 202.014 25.9653 201.939 25.784C201.864 25.6027 201.843 25.432 201.875 25.272C201.918 25.1013 201.998 24.9573 202.115 24.84C202.243 24.7227 202.398 24.6533 202.579 24.632C202.771 24.6107 202.979 24.6587 203.203 24.776C203.64 25.0107 204.062 25.1813 204.467 25.288C204.872 25.384 205.288 25.432 205.715 25.432C206.184 25.432 206.579 25.368 206.899 25.24C207.219 25.112 207.459 24.92 207.619 24.664C207.79 24.408 207.875 24.0987 207.875 23.736C207.875 23.2027 207.694 22.808 207.331 22.552C206.979 22.2853 206.462 22.152 205.779 22.152H204.755C204.456 22.152 204.227 22.0773 204.067 21.928C203.918 21.7787 203.843 21.5707 203.843 21.304C203.843 21.0373 203.918 20.8293 204.067 20.68C204.227 20.5307 204.456 20.456 204.755 20.456H205.587C205.992 20.456 206.339 20.392 206.627 20.264C206.915 20.1253 207.139 19.9333 207.299 19.688C207.459 19.4427 207.539 19.144 207.539 18.792C207.539 18.3013 207.374 17.928 207.043 17.672C206.723 17.416 206.254 17.288 205.635 17.288C205.24 17.288 204.867 17.336 204.515 17.432C204.174 17.5173 203.795 17.6827 203.379 17.928C203.187 18.0453 203 18.0933 202.819 18.072C202.648 18.0507 202.504 17.9813 202.387 17.864C202.27 17.7467 202.19 17.608 202.147 17.448C202.104 17.2773 202.115 17.1067 202.179 16.936C202.243 16.7547 202.376 16.6 202.579 16.472C203.038 16.1733 203.544 15.9493 204.099 15.8C204.654 15.64 205.224 15.56 205.811 15.56C206.59 15.56 207.256 15.6827 207.811 15.928C208.366 16.1627 208.787 16.504 209.075 16.952C209.374 17.3893 209.523 17.9227 209.523 18.552C209.523 19 209.438 19.4107 209.267 19.784C209.096 20.1467 208.856 20.456 208.547 20.712C208.238 20.968 207.864 21.1493 207.427 21.256V21.064C208.195 21.192 208.792 21.512 209.219 22.024C209.646 22.5253 209.859 23.1547 209.859 23.912C209.859 24.5733 209.694 25.1493 209.363 25.64C209.032 26.1307 208.563 26.5093 207.955 26.776C207.347 27.032 206.622 27.16 205.779 27.16Z" fill="#141414"/>
<circle cx="262.5" cy="22.5" r="22" stroke="#CEDEE6"/>
<path d="M264.811 27.128C264.491 27.128 264.24 27.0427 264.059 26.872C263.878 26.6907 263.787 26.4347 263.787 26.104V24.856H259.835C259.504 24.856 259.238 24.7867 259.035 24.648C258.843 24.5093 258.747 24.2907 258.747 23.992C258.747 23.8213 258.79 23.6347 258.875 23.432C258.971 23.2293 259.136 22.9627 259.371 22.632L263.755 16.28C263.904 16.056 264.07 15.8853 264.251 15.768C264.432 15.6507 264.64 15.592 264.875 15.592C265.152 15.592 265.382 15.6773 265.563 15.848C265.744 16.008 265.835 16.264 265.835 16.616V23.16H266.619C266.928 23.16 267.158 23.2347 267.307 23.384C267.467 23.5227 267.547 23.7307 267.547 24.008C267.547 24.2853 267.467 24.4987 267.307 24.648C267.158 24.7867 266.928 24.856 266.619 24.856H265.835V26.104C265.835 26.4347 265.744 26.6907 265.563 26.872C265.382 27.0427 265.131 27.128 264.811 27.128ZM263.787 23.16V18.168H264.251L260.475 23.704V23.16H263.787Z" fill="#141414"/>
<circle cx="319.5" cy="22.5" r="22" stroke="#CEDEE6"/>
<path d="M320.099 27.16C319.534 27.16 318.958 27.0853 318.371 26.936C317.784 26.7867 317.246 26.5573 316.755 26.248C316.552 26.12 316.414 25.9707 316.339 25.8C316.275 25.6187 316.259 25.4427 316.291 25.272C316.334 25.0907 316.414 24.9413 316.531 24.824C316.659 24.696 316.808 24.6213 316.979 24.6C317.16 24.5787 317.358 24.6267 317.571 24.744C317.966 24.968 318.366 25.1387 318.771 25.256C319.176 25.3733 319.608 25.432 320.067 25.432C320.515 25.432 320.899 25.352 321.219 25.192C321.539 25.032 321.784 24.808 321.955 24.52C322.126 24.232 322.211 23.896 322.211 23.512C322.211 22.9147 322.03 22.4347 321.667 22.072C321.304 21.6987 320.808 21.512 320.179 21.512C319.838 21.512 319.507 21.5707 319.187 21.688C318.867 21.7947 318.552 21.9867 318.243 22.264C318.147 22.3493 318.024 22.4347 317.875 22.52C317.726 22.5947 317.566 22.632 317.395 22.632C317.128 22.632 316.926 22.5627 316.787 22.424C316.648 22.2853 316.579 22.0933 316.579 21.848V16.616C316.579 16.328 316.654 16.1093 316.803 15.96C316.963 15.8 317.187 15.72 317.475 15.72H322.739C323.027 15.72 323.246 15.7947 323.395 15.944C323.555 16.0827 323.635 16.2907 323.635 16.568C323.635 16.8347 323.555 17.0427 323.395 17.192C323.246 17.3413 323.027 17.416 322.739 17.416H318.579V21H318.051C318.328 20.6267 318.696 20.3387 319.155 20.136C319.614 19.9333 320.115 19.832 320.659 19.832C321.374 19.832 321.992 19.9867 322.515 20.296C323.048 20.5947 323.459 21.016 323.747 21.56C324.046 22.0933 324.195 22.7173 324.195 23.432C324.195 24.168 324.03 24.8187 323.699 25.384C323.368 25.9387 322.894 26.376 322.275 26.696C321.667 27.0053 320.942 27.16 320.099 27.16Z" fill="#141414"/>
<circle cx="376.5" cy="22.5" r="22" stroke="#CEDEE6"/>
<path d="M377.419 27.16C376.491 27.16 375.696 26.9413 375.035 26.504C374.384 26.056 373.888 25.416 373.547 24.584C373.206 23.752 373.035 22.744 373.035 21.56C373.035 20.6 373.142 19.752 373.355 19.016C373.579 18.2693 373.899 17.64 374.315 17.128C374.731 16.616 375.238 16.2267 375.835 15.96C376.443 15.6933 377.126 15.56 377.883 15.56C378.352 15.56 378.827 15.6347 379.307 15.784C379.798 15.9227 380.256 16.136 380.683 16.424C380.854 16.5307 380.966 16.6693 381.019 16.84C381.072 17.0107 381.078 17.1813 381.035 17.352C381.003 17.512 380.928 17.656 380.811 17.784C380.704 17.9013 380.566 17.976 380.395 18.008C380.224 18.0293 380.038 17.9813 379.835 17.864C379.472 17.6507 379.131 17.5013 378.811 17.416C378.491 17.3307 378.171 17.288 377.851 17.288C377.232 17.288 376.71 17.432 376.283 17.72C375.856 18.008 375.531 18.44 375.307 19.016C375.094 19.592 374.987 20.312 374.987 21.176V22.376H374.795C374.88 21.832 375.056 21.368 375.323 20.984C375.6 20.5893 375.952 20.2907 376.379 20.088C376.806 19.8747 377.28 19.768 377.803 19.768C378.454 19.768 379.03 19.9227 379.531 20.232C380.032 20.5413 380.427 20.968 380.715 21.512C381.003 22.056 381.147 22.68 381.147 23.384C381.147 24.1093 380.987 24.76 380.667 25.336C380.358 25.9013 379.92 26.3493 379.355 26.68C378.8 27 378.155 27.16 377.419 27.16ZM377.307 25.528C377.691 25.528 378.027 25.4427 378.315 25.272C378.614 25.1013 378.843 24.8613 379.003 24.552C379.163 24.232 379.243 23.8693 379.243 23.464C379.243 23.048 379.163 22.6853 379.003 22.376C378.843 22.0667 378.614 21.8267 378.315 21.656C378.027 21.4747 377.691 21.384 377.307 21.384C376.923 21.384 376.587 21.4747 376.299 21.656C376.011 21.8267 375.782 22.0667 375.611 22.376C375.451 22.6853 375.371 23.048 375.371 23.464C375.371 23.8693 375.451 24.232 375.611 24.552C375.782 24.8613 376.011 25.1013 376.299 25.272C376.587 25.4427 376.923 25.528 377.307 25.528Z" fill="#141414"/>
<circle cx="433.5" cy="22.5" r="22" stroke="#CEDEE6"/>
<path d="M431.955 27.128C431.71 27.128 431.507 27.0693 431.347 26.952C431.187 26.8347 431.091 26.68 431.059 26.488C431.027 26.2853 431.075 26.0613 431.203 25.816L436.035 16.728V17.432H430.851C430.563 17.432 430.339 17.3573 430.179 17.208C430.03 17.0587 429.955 16.8507 429.955 16.584C429.955 16.3067 430.03 16.0933 430.179 15.944C430.339 15.7947 430.563 15.72 430.851 15.72H437.043C437.331 15.72 437.566 15.7947 437.747 15.944C437.928 16.0933 438.019 16.3067 438.019 16.584C438.019 16.8187 437.987 17.0267 437.923 17.208C437.859 17.3787 437.774 17.5653 437.667 17.768L433.123 26.456C433.006 26.6907 432.851 26.8613 432.659 26.968C432.478 27.0747 432.243 27.128 431.955 27.128Z" fill="#141414"/>
<circle cx="502.5" cy="22.5" r="22" stroke="#CEDEE6"/>
<path d="M500.5 15L507.5 22L500.5 29" stroke="#141414" stroke-width="2" stroke-linecap="round"/>
</svg>
