<svg width="18" height="18" viewBox="0 0 18 18" fill="none" xmlns="http://www.w3.org/2000/svg">
<rect width="18" height="18" rx="3.6" fill="#25D366"/>
<path d="M11.2491 9.98997C11.1141 9.94497 10.5291 9.62997 10.3941 9.58497C10.2591 9.53997 10.2141 9.53997 10.1241 9.62997C10.0003 9.80381 9.86499 9.96917 9.71912 10.125C9.62912 10.215 9.58412 10.215 9.44912 10.17C9.07292 10.0433 8.73316 9.82713 8.45912 9.53997C8.18012 9.30209 7.95075 9.01155 7.78412 8.68497C7.69412 8.54997 7.78412 8.50497 7.82912 8.41497C7.89982 8.3492 7.96046 8.27339 8.00912 8.18997C8.05412 8.09997 8.09912 8.05497 8.14412 7.96497C8.18912 7.87497 8.14412 7.82997 8.14412 7.73997C8.14412 7.64997 7.87412 7.06497 7.73912 6.83997C7.60412 6.61497 7.55912 6.61497 7.46912 6.61497H7.24412C7.12621 6.62023 7.01424 6.66822 6.92912 6.74997C6.78118 6.8776 6.6639 7.03693 6.58599 7.21611C6.50809 7.3953 6.47156 7.58973 6.47912 7.78497C6.52035 8.245 6.69209 8.6837 6.97412 9.04947C7.4853 9.85934 8.22199 10.5022 9.09362 10.899C9.40862 11.034 9.63362 11.079 9.81362 11.169C10.0607 11.2482 10.3239 11.2637 10.5786 11.214C10.922 11.1223 11.2237 10.9158 11.4336 10.629C11.4905 10.4391 11.5208 10.2422 11.5236 10.044C11.4317 10.0448 11.3403 10.0295 11.2536 9.99897L11.2491 9.98997ZM8.99912 13.05C8.25156 13.059 7.51673 12.8561 6.87962 12.465L6.74462 12.375L5.16512 12.78L5.57462 11.25L5.48462 11.115C5.07326 10.4514 4.85509 9.68622 4.85462 8.90547C4.85373 8.08449 5.09642 7.28171 5.55197 6.59872C6.00753 5.91573 6.65547 5.38324 7.41378 5.06866C8.1721 4.75407 9.0067 4.67153 9.81194 4.83148C10.6172 4.99142 11.3569 5.38667 11.9374 5.96719C12.5179 6.54771 12.9132 7.2874 13.0731 8.09265C13.2331 8.89789 13.1505 9.73249 12.8359 10.4908C12.5213 11.2491 11.9889 11.8971 11.3059 12.3526C10.6229 12.8082 9.82009 13.0509 8.99912 13.05ZM12.5136 5.43597C11.5687 4.52518 10.3114 4.01002 8.99912 3.99597C7.6863 3.99597 6.42724 4.51749 5.49894 5.44579C4.57063 6.3741 4.04912 7.63315 4.04912 8.94597C4.0489 9.81789 4.28196 10.674 4.72412 11.4255L3.99512 14.004L6.65462 13.329C7.38695 13.7278 8.21038 13.9294 9.04412 13.914C9.69416 13.914 10.3378 13.7859 10.9384 13.5372C11.539 13.2884 12.0846 12.9238 12.5443 12.4642C13.0039 12.0045 13.3686 11.4588 13.6173 10.8583C13.8661 10.2577 13.9941 9.61401 13.9941 8.96397C13.9622 7.64576 13.4297 6.38914 12.5046 5.44947" fill="#FBFBFD"/>
</svg>
