<svg width="116" height="19" viewBox="0 0 116 19" fill="none" xmlns="http://www.w3.org/2000/svg">
<g clip-path="url(#clip0_2900_7270)">
<path d="M9.0709 0.615945C9.41464 -0.205316 10.5854 -0.205315 10.9291 0.615947L12.9579 5.46318C13.1029 5.8094 13.4306 6.04596 13.8067 6.07593L19.0727 6.49546C19.9649 6.56654 20.3267 7.673 19.6469 8.25165L15.6348 11.6669C15.3483 11.9109 15.223 12.2937 15.3106 12.6583L16.5364 17.7649C16.744 18.63 15.7969 19.3139 15.033 18.8503L10.5246 16.1138C10.2025 15.9183 9.79752 15.9183 9.4755 16.1138L4.967 18.8503C4.20312 19.3139 3.25596 18.63 3.46364 17.7649L4.68943 12.6583C4.77699 12.2937 4.65183 11.9109 4.36527 11.6669L0.353063 8.25165C-0.326719 7.673 0.0350679 6.56654 0.927293 6.49546L6.19337 6.07593C6.56952 6.04596 6.89717 5.8094 7.04208 5.46318L9.0709 0.615945Z" fill="#F25A2A"/>
<path d="M33.0709 0.615945C33.4146 -0.205316 34.5854 -0.205315 34.9291 0.615947L36.9579 5.46318C37.1029 5.8094 37.4306 6.04596 37.8067 6.07593L43.0727 6.49546C43.9649 6.56654 44.3267 7.673 43.6469 8.25165L39.6348 11.6669C39.3483 11.9109 39.223 12.2937 39.3106 12.6583L40.5364 17.7649C40.744 18.63 39.7969 19.3139 39.033 18.8503L34.5246 16.1138C34.2025 15.9183 33.7975 15.9183 33.4755 16.1138L28.967 18.8503C28.2031 19.3139 27.256 18.63 27.4636 17.7649L28.6894 12.6583C28.777 12.2937 28.6518 11.9109 28.3653 11.6669L24.3531 8.25165C23.6733 7.673 24.0351 6.56654 24.9273 6.49546L30.1934 6.07593C30.5695 6.04596 30.8972 5.8094 31.0421 5.46318L33.0709 0.615945Z" fill="#F25A2A"/>
<path d="M57.0709 0.615945C57.4146 -0.205316 58.5854 -0.205315 58.9291 0.615947L60.9579 5.46318C61.1029 5.8094 61.4306 6.04596 61.8067 6.07593L67.0727 6.49546C67.9649 6.56654 68.3267 7.673 67.6469 8.25165L63.6348 11.6669C63.3483 11.9109 63.223 12.2937 63.3106 12.6583L64.5364 17.7649C64.744 18.63 63.7969 19.3139 63.033 18.8503L58.5246 16.1138C58.2025 15.9183 57.7975 15.9183 57.4755 16.1138L52.967 18.8503C52.2031 19.3139 51.256 18.63 51.4636 17.7649L52.6894 12.6583C52.777 12.2937 52.6518 11.9109 52.3653 11.6669L48.3531 8.25165C47.6733 7.673 48.0351 6.56654 48.9273 6.49546L54.1934 6.07593C54.5695 6.04596 54.8972 5.8094 55.0421 5.46318L57.0709 0.615945Z" fill="#F25A2A"/>
<path d="M81.0709 0.615945C81.4146 -0.205316 82.5854 -0.205315 82.9291 0.615947L84.9579 5.46318C85.1029 5.8094 85.4306 6.04596 85.8067 6.07593L91.0727 6.49546C91.9649 6.56654 92.3267 7.673 91.6469 8.25165L87.6348 11.6669C87.3483 11.9109 87.223 12.2937 87.3106 12.6583L88.5364 17.7649C88.744 18.63 87.7969 19.3139 87.033 18.8503L82.5246 16.1138C82.2025 15.9183 81.7975 15.9183 81.4755 16.1138L76.967 18.8503C76.2031 19.3139 75.256 18.63 75.4636 17.7649L76.6894 12.6583C76.777 12.2937 76.6518 11.9109 76.3653 11.6669L72.3531 8.25165C71.6733 7.673 72.0351 6.56654 72.9273 6.49546L78.1934 6.07593C78.5695 6.04596 78.8972 5.8094 79.0421 5.46318L81.0709 0.615945Z" fill="#F25A2A"/>
<path d="M105.071 0.615945C105.415 -0.205316 106.585 -0.205315 106.929 0.615947L108.958 5.46318C109.103 5.8094 109.431 6.04596 109.807 6.07593L115.073 6.49546C115.965 6.56654 116.327 7.673 115.647 8.25165L111.635 11.6669C111.348 11.9109 111.223 12.2937 111.311 12.6583L112.536 17.7649C112.744 18.63 111.797 19.3139 111.033 18.8503L106.525 16.1138C106.203 15.9183 105.798 15.9183 105.476 16.1138L100.967 18.8503C100.203 19.3139 99.256 18.63 99.4636 17.7649L100.689 12.6583C100.777 12.2937 100.652 11.9109 100.365 11.6669L96.3531 8.25165C95.6733 7.673 96.0351 6.56654 96.9273 6.49546L102.193 6.07593C102.57 6.04596 102.897 5.8094 103.042 5.46318L105.071 0.615945Z" fill="#F25A2A"/>
</g>
<defs>
<clipPath id="clip0_2900_7270">
<rect width="116" height="19" fill="white"/>
</clipPath>
</defs>
</svg>
