<svg width="220" height="74" viewBox="0 0 220 74" fill="none" xmlns="http://www.w3.org/2000/svg">
<path d="M207.435 20.5997V35.4879L185.883 35.4918V20.5997H179.34V42.7201H180.103C187.883 42.7163 195.662 42.7086 203.441 42.697C204.953 42.695 206.465 42.6906 207.977 42.6861C210.027 42.68 212.077 42.6739 214.128 42.674V45.2387H220.001V35.4273H214.19C214.106 35.2977 214.106 35.0652 214.106 34.648V21.4801C214.106 21.2677 214.093 21.0534 214.08 20.8505C214.075 20.7645 214.07 20.6806 214.066 20.5997H207.435Z" fill="#00578A"/>
<path d="M131.682 29.3058V42.6517H125.078V20.607C126.813 20.607 128.524 20.607 130.233 20.6166C130.471 20.6532 130.701 20.7333 130.91 20.8529C136.804 23.3593 142.695 25.8727 148.581 28.3932C148.816 28.5045 149.074 28.5602 149.334 28.5558C149.594 28.5515 149.85 28.4874 150.081 28.3683C155.783 25.8439 161.493 23.3369 167.21 20.8472C167.562 20.698 167.939 20.6177 168.321 20.6108C169.865 20.5859 171.408 20.6108 173.01 20.6108V42.6805H166.439V29.3788C166.08 29.5229 165.837 29.6112 165.604 29.715C160.454 31.9947 155.306 34.2795 150.162 36.5695C149.933 36.6899 149.679 36.7553 149.421 36.7606C149.162 36.766 148.906 36.7111 148.673 36.6002C143.311 34.2667 137.94 31.9498 132.562 29.6496C132.302 29.5286 132.033 29.4402 131.682 29.3058Z" fill="#00578A"/>
<path d="M84.1484 20.5997H119.003V21.6745C119.003 23.3925 118.967 25.1106 119.019 26.8286C119.041 27.5521 118.787 27.7048 118.108 27.7029C109.339 27.6825 100.569 27.678 91.7994 27.6895H90.7476V42.4112H84.1484V20.5997Z" fill="#00578A"/>
<path d="M84.0156 53.5864V49.1433H87.247V49.7885H84.8382V53.5864H84.0156Z" fill="#151515"/>
<path d="M90.0771 53.5857C89.6792 53.5955 89.2859 53.4999 88.9381 53.3089C88.6162 53.1228 88.3561 52.8481 88.1897 52.5185C88.0038 52.1399 87.9123 51.723 87.9228 51.3024C87.9113 50.8786 88.0028 50.4583 88.1897 50.0767C88.3561 49.747 88.6162 49.4724 88.9381 49.2863C89.2856 49.0944 89.6791 48.9988 90.0771 49.0095C90.4762 48.9995 90.8708 49.0951 91.2199 49.2863C91.5427 49.4708 91.8025 49.7459 91.9664 50.0767C92.1502 50.4558 92.2403 50.8726 92.2294 51.2928C92.2408 51.7161 92.1507 52.1361 91.9664 52.5185C91.8025 52.8492 91.5427 53.1244 91.2199 53.3089C90.8704 53.4992 90.4761 53.5947 90.0771 53.5857ZM90.0771 52.9519C90.2599 52.9584 90.4418 52.924 90.6093 52.8513C90.7767 52.7785 90.9253 52.6693 91.044 52.5319C91.2876 52.2493 91.4094 51.8363 91.4094 51.2928C91.4094 50.7493 91.2876 50.3395 91.044 50.0633C90.924 49.9279 90.775 49.8205 90.6077 49.7492C90.4405 49.6778 90.2592 49.6443 90.0771 49.6509C89.8949 49.644 89.7136 49.6774 89.5462 49.7488C89.3789 49.8202 89.2299 49.9277 89.1102 50.0633C88.8704 50.3382 88.7505 50.7481 88.7505 51.2928C88.7505 51.8376 88.8704 52.2506 89.1102 52.5319C89.2286 52.6696 89.3772 52.7789 89.5447 52.8516C89.7122 52.9244 89.8942 52.9587 90.0771 52.9519Z" fill="#151515"/>
<path d="M93.5144 55.4713V50.1458C93.5144 49.9741 93.5144 49.7985 93.4946 49.621C93.4749 49.4435 93.4651 49.266 93.4414 49.0884H94.2301L94.3287 50.1188H94.2301C94.313 49.7868 94.5197 49.497 94.8097 49.3065C95.1237 49.1029 95.4941 48.9992 95.8705 49.0093C96.2436 49.0012 96.6115 49.0969 96.9312 49.2853C97.2406 49.476 97.4855 49.7518 97.6351 50.0783C97.8096 50.4684 97.8944 50.8913 97.8836 51.3171C97.8943 51.744 97.8095 52.1681 97.6351 52.5597C97.4868 52.8884 97.2417 53.1665 96.9312 53.3585C96.6115 53.5468 96.2436 53.6426 95.8705 53.6344C95.4986 53.643 95.133 53.5392 94.8235 53.3373C94.5361 53.1452 94.3267 52.8604 94.232 52.5327H94.3306V55.4713H93.5144ZM95.6832 52.9938C95.8714 53.0013 96.059 52.967 96.2318 52.8935C96.4045 52.82 96.5581 52.7092 96.6808 52.5693C96.928 52.2837 97.0515 51.8663 97.0515 51.3171C97.0515 50.7678 96.928 50.3536 96.6808 50.0744C96.5568 49.9366 96.4028 49.8277 96.2302 49.7556C96.0576 49.6835 95.8707 49.65 95.6832 49.6576C95.4975 49.6506 95.3126 49.6844 95.142 49.7566C94.9714 49.8287 94.8194 49.9373 94.6974 50.0744C94.4529 50.3523 94.3306 50.7665 94.3306 51.3171C94.3306 51.8676 94.4529 52.285 94.6974 52.5693C94.819 52.7095 94.9717 52.8207 95.1439 52.8943C95.3162 52.9678 95.5033 53.0019 95.6911 52.9938H95.6832Z" fill="#151515"/>
<path d="M100.978 53.5857C100.58 53.5952 100.186 53.4997 99.8385 53.3089C99.5178 53.1219 99.2586 52.8474 99.0921 52.5185C98.9062 52.1399 98.8147 51.723 98.8252 51.3024C98.8136 50.8786 98.9052 50.4583 99.0921 50.0766C99.2586 49.7477 99.5178 49.4733 99.8385 49.2863C100.186 49.0947 100.58 48.999 100.978 49.0094C101.377 48.9993 101.771 49.0949 102.12 49.2863C102.444 49.4708 102.704 49.7458 102.869 50.0766C103.052 50.456 103.142 50.8727 103.132 51.2928C103.142 51.716 103.052 52.1358 102.869 52.5185C102.704 52.8493 102.444 53.1244 102.12 53.3089C101.771 53.4995 101.377 53.595 100.978 53.5857ZM100.978 52.9519C101.16 52.9584 101.342 52.924 101.51 52.8513C101.677 52.7786 101.826 52.6694 101.944 52.5319C102.187 52.2493 102.308 51.8363 102.308 51.2928C102.308 50.7493 102.187 50.3395 101.944 50.0633C101.824 49.928 101.675 49.8207 101.508 49.7494C101.341 49.678 101.16 49.6444 100.978 49.6509C100.795 49.6438 100.614 49.6772 100.447 49.7486C100.279 49.82 100.13 49.9275 100.011 50.0633C99.7696 50.3382 99.649 50.7481 99.649 51.2928C99.649 51.8376 99.7696 52.2506 100.011 52.5319C100.129 52.6697 100.278 52.7791 100.445 52.8519C100.613 52.9247 100.795 52.9588 100.978 52.9519Z" fill="#151515"/>
<path d="M104.078 54.6635V52.9119H104.566C104.777 52.5922 104.926 52.2377 105.007 51.8655C105.105 51.3947 105.15 50.9148 105.144 50.4343V49.1433H108.349V52.9119H109.06V54.6635H108.367V53.5261H104.771V54.6635H104.078ZM105.331 52.9195H107.595V49.7575H105.858V50.5784C105.859 51.0101 105.814 51.4409 105.725 51.8636C105.648 52.2345 105.512 52.591 105.321 52.9195H105.331Z" fill="#151515"/>
<path d="M112.095 53.5857C111.683 53.5958 111.277 53.5003 110.916 53.3088C110.583 53.1222 110.314 52.8438 110.143 52.5088C109.95 52.1221 109.856 51.6957 109.868 51.2659C109.856 50.8443 109.951 50.4263 110.147 50.0498C110.326 49.7229 110.599 49.4541 110.933 49.2765C111.292 49.0923 111.693 49.0003 112.099 49.0093C112.391 49.0086 112.682 49.0577 112.957 49.1544C113.214 49.2386 113.447 49.3813 113.635 49.5706L113.356 50.1338C113.191 49.975 112.993 49.8509 112.776 49.7691C112.578 49.6928 112.367 49.6527 112.154 49.6507C111.958 49.6409 111.762 49.6731 111.581 49.745C111.4 49.817 111.237 49.9269 111.104 50.0669C110.851 50.3457 110.725 50.7485 110.725 51.2755C110.695 51.7164 110.829 52.153 111.104 52.505C111.235 52.6487 111.397 52.762 111.578 52.8363C111.76 52.9107 111.957 52.9443 112.154 52.9346C112.364 52.9323 112.572 52.8935 112.769 52.8201C112.988 52.7405 113.189 52.6184 113.358 52.4611L113.637 53.0148C113.445 53.2087 113.208 53.3548 112.945 53.4406C112.672 53.5358 112.385 53.5849 112.095 53.5857Z" fill="#151515"/>
<path d="M114.715 53.5864V49.1433H115.515V50.9809H116.332L117.779 49.1433H118.665L116.984 51.3015L116.771 51.0557C116.927 51.0683 117.079 51.1114 117.218 51.1824C117.354 51.2607 117.476 51.3606 117.579 51.4781C117.72 51.6414 117.847 51.8161 117.958 52.0004L118.889 53.5807H118.012L117.198 52.2116C117.126 52.0765 117.036 51.9519 116.93 51.8411C116.847 51.7544 116.745 51.6886 116.631 51.649C116.496 51.6111 116.355 51.5936 116.215 51.5972H115.515V53.5749L114.715 53.5864Z" fill="#151515"/>
<path d="M121.713 53.5857C121.315 53.5955 120.921 53.4999 120.573 53.3089C120.251 53.1228 119.991 52.8481 119.825 52.5185C119.639 52.1397 119.549 51.7228 119.56 51.3024C119.548 50.8788 119.638 50.4585 119.825 50.0767C119.991 49.747 120.251 49.4724 120.573 49.2863C120.921 49.0944 121.315 48.9988 121.713 49.0095C122.112 48.9993 122.507 49.0949 122.856 49.2863C123.179 49.4708 123.439 49.7459 123.603 50.0767C123.787 50.4558 123.877 50.8726 123.866 51.2928C123.877 51.7161 123.787 52.1361 123.603 52.5185C123.439 52.8492 123.179 53.1244 122.856 53.3089C122.507 53.4994 122.112 53.5949 121.713 53.5857ZM121.713 52.9519C121.896 52.9584 122.078 52.924 122.245 52.8513C122.413 52.7785 122.561 52.6693 122.68 52.5319C122.924 52.2493 123.046 51.8363 123.046 51.2928C123.046 50.7493 122.924 50.3395 122.68 50.0633C122.56 49.9279 122.411 49.8205 122.244 49.7492C122.076 49.6778 121.895 49.6443 121.713 49.6509C121.531 49.644 121.349 49.6774 121.182 49.7488C121.014 49.8202 120.865 49.9277 120.746 50.0633C120.506 50.3382 120.386 50.7481 120.386 51.2928C120.386 51.8376 120.506 52.2506 120.746 52.5319C120.864 52.6696 121.013 52.7789 121.18 52.8516C121.348 52.9244 121.53 52.9587 121.713 52.9519Z" fill="#151515"/>
<path d="M125.082 53.5767V49.1232H125.838V52.8261H125.59L128.431 49.1328H129.121V53.5863H128.366V49.8853H128.621L125.772 53.5863L125.082 53.5767ZM127.102 48.7171C126.856 48.7199 126.611 48.6747 126.384 48.5843C126.169 48.4989 125.978 48.3673 125.824 48.1993C125.66 48.0166 125.54 47.8001 125.474 47.5661L125.946 47.3968C126.028 47.6436 126.183 47.8614 126.391 48.0223C126.601 48.1582 126.85 48.2256 127.102 48.2148C127.355 48.2225 127.606 48.1554 127.82 48.0223C128.038 47.8589 128.208 47.6416 128.312 47.3929L128.757 47.5527C128.642 47.9067 128.41 48.2141 128.099 48.4284C127.803 48.619 127.456 48.7195 127.102 48.7171Z" fill="#151515"/>
<path d="M133.023 53.5864V49.1433H133.705L135.378 52.0503L137.058 49.1433H137.736V53.5864H137.013V50.0457H137.209L135.58 52.8721H135.175L133.548 50.0361H133.745V53.5864H133.023Z" fill="#151515"/>
<path d="M141.243 53.5864C140.535 53.5864 139.975 53.384 139.564 52.9792C139.154 52.5763 138.95 52.0245 138.95 51.3104C138.939 50.8893 139.031 50.4719 139.22 50.0942C139.388 49.7633 139.648 49.4866 139.969 49.2961C140.306 49.1004 140.692 49.0013 141.083 49.0097C141.446 48.9977 141.806 49.0877 142.119 49.2694C142.405 49.4425 142.631 49.6984 142.766 50.0026C142.922 50.3569 142.997 50.7407 142.988 51.1272V51.3907H139.578V50.9152H142.439L142.289 51.0298C142.312 50.651 142.204 50.2757 141.982 49.9663C141.873 49.8375 141.735 49.7358 141.579 49.6695C141.423 49.6032 141.253 49.5741 141.083 49.5845C140.893 49.5744 140.703 49.6092 140.529 49.6863C140.355 49.7633 140.202 49.8802 140.082 50.0274C139.832 50.3789 139.708 50.8042 139.732 51.2341V51.3143C139.732 51.8527 139.867 52.2594 140.136 52.5343C140.284 52.6764 140.46 52.7863 140.653 52.8573C140.846 52.9283 141.051 52.9588 141.257 52.9467C141.509 52.9493 141.76 52.9113 142 52.8341C142.244 52.7495 142.469 52.62 142.664 52.4522L142.93 53.0059C142.713 53.1964 142.457 53.3395 142.181 53.426C141.879 53.531 141.563 53.5852 141.243 53.5864Z" fill="#151515"/>
<path d="M143.797 54.6635V52.9119H144.297C144.513 52.5922 144.666 52.2377 144.749 51.8655C144.849 51.3947 144.896 50.9148 144.889 50.4343V49.1433H148.185V52.9119H148.913V54.6635H148.185V53.5261H144.517V54.6635H143.797ZM145.081 52.9195H147.394V49.7575H145.613V50.5784C145.614 51.0101 145.568 51.4409 145.477 51.8636C145.404 52.2335 145.271 52.5899 145.081 52.9195Z" fill="#151515"/>
<path d="M149.855 53.5768V49.1433H150.611V52.8296H150.366L153.204 49.1529H153.895V53.5864H153.139V49.902H153.394L150.548 53.5864L149.855 53.5768Z" fill="#151515"/>
<path d="M159.263 54.7981V53.6338H155.375V49.1433H156.18V53.0012H158.433V49.1433H159.237V53.0012H159.953V54.7943L159.263 54.7981Z" fill="#151515"/>
<path d="M161.027 53.5768V49.1433H161.783V52.8296H161.537L164.375 49.1529H165.067V53.5864H164.311V49.902H164.566L161.719 53.5864L161.027 53.5768Z" fill="#151515"/>
<path d="M166.551 53.5864V49.1433H167.37V50.9809H169.776V49.1433H170.59V53.5864H169.776V51.6164H167.37V53.5864H166.551Z" fill="#151515"/>
<path d="M174.034 53.5857C173.622 53.5958 173.214 53.5003 172.853 53.3088C172.519 53.1228 172.249 52.8442 172.079 52.5088C171.885 52.1222 171.79 51.6959 171.802 51.2659C171.79 50.8441 171.886 50.4261 172.083 50.0498C172.26 49.7248 172.53 49.4563 172.861 49.2765C173.22 49.0923 173.623 49.0003 174.03 49.0093C174.323 49.0086 174.614 49.0577 174.89 49.1544C175.147 49.2386 175.38 49.3813 175.569 49.5706L175.287 50.1338C175.122 49.9754 174.925 49.8513 174.709 49.7691C174.509 49.6927 174.297 49.6525 174.083 49.6507C173.887 49.6412 173.692 49.6735 173.51 49.7455C173.329 49.8174 173.166 49.9271 173.034 50.0669C172.779 50.3457 172.653 50.7485 172.654 51.2755C172.624 51.7164 172.759 52.153 173.034 52.505C173.164 52.6485 173.326 52.7617 173.508 52.8361C173.689 52.9105 173.886 52.9441 174.083 52.9346C174.294 52.9327 174.502 52.8939 174.699 52.8201C174.919 52.741 175.12 52.6188 175.289 52.4611L175.571 53.0148C175.378 53.2087 175.141 53.3548 174.878 53.4406C174.607 53.5347 174.321 53.5837 174.034 53.5857Z" fill="#151515"/>
<path d="M176.648 53.5864V49.1433H177.463V50.9809H178.277L179.724 49.1433H180.609L178.92 51.3015L178.704 51.0557C178.86 51.0679 179.012 51.111 179.151 51.1824C179.288 51.2602 179.411 51.3601 179.515 51.4781C179.654 51.6423 179.781 51.8169 179.893 52.0004L180.822 53.5807H179.948L179.134 52.2116C179.062 52.0765 178.972 51.9519 178.866 51.8411C178.783 51.7544 178.68 51.6886 178.566 51.649C178.431 51.6112 178.291 51.5938 178.15 51.5972H177.463V53.5749L176.648 53.5864Z" fill="#151515"/>
<path d="M181.629 53.5768V49.1433H182.384V52.8296H182.139L184.976 49.1529H185.668V53.5864H184.923V49.902H185.178L182.331 53.5864L181.629 53.5768Z" fill="#151515"/>
<path d="M187.148 53.5767V49.1287H187.903V52.8271H187.662L190.496 49.1383H191.188V53.5863H190.427V49.8899H190.682L187.838 53.5863L187.148 53.5767ZM189.165 48.7231C188.921 48.7277 188.679 48.6852 188.452 48.5982C188.238 48.5124 188.047 48.3811 187.893 48.2137C187.731 48.0302 187.611 47.8144 187.543 47.5813L188.016 47.4122C188.098 47.6521 188.249 47.8637 188.452 48.0215C188.66 48.1578 188.908 48.2252 189.159 48.2137C189.413 48.2217 189.664 48.1547 189.878 48.0215C190.097 47.8587 190.266 47.6415 190.368 47.3929L190.814 47.5525C190.698 47.9062 190.467 48.2134 190.155 48.4271C189.862 48.6192 189.518 48.7222 189.165 48.7231Z" fill="#151515"/>
<path d="M198.983 54.7981V53.6338H195.094V49.1433H195.899V53.0012H198.151V49.1433H198.956V53.0012H199.671V54.7943L198.983 54.7981Z" fill="#151515"/>
<path d="M202.772 53.5864C202.063 53.5864 201.504 53.3842 201.094 52.98C200.682 52.5776 200.478 52.0265 200.478 51.3133C200.465 50.8912 200.557 50.4724 200.743 50.0929C200.913 49.7628 201.172 49.4866 201.493 49.2958C201.831 49.0999 202.218 49.0009 202.61 49.0097C202.973 48.9977 203.332 49.0876 203.646 49.2691C203.932 49.4431 204.157 49.6983 204.293 50.0013C204.448 50.3555 204.524 50.7387 204.515 51.1245V51.3877H201.108V50.9129H203.968L203.818 51.0272C203.841 50.6489 203.733 50.2741 203.511 49.9651C203.402 49.8365 203.264 49.7349 203.108 49.6687C202.953 49.6025 202.783 49.5734 202.614 49.5837C202.423 49.5735 202.233 49.6083 202.059 49.6852C201.885 49.7622 201.732 49.879 201.612 50.0261C201.359 50.3761 201.234 50.8013 201.258 51.2313V51.3114C201.258 51.8491 201.391 52.2649 201.66 52.5299C201.808 52.6715 201.984 52.7811 202.177 52.852C202.37 52.9229 202.576 52.9535 202.781 52.9418C203.034 52.9446 203.285 52.9066 203.525 52.8293C203.769 52.7449 203.994 52.6155 204.189 52.448L204.455 53.0009C204.238 53.1908 203.984 53.3337 203.708 53.4205C203.407 53.5269 203.091 53.583 202.772 53.5864Z" fill="#151515"/>
<path d="M205.73 53.5864V49.1433H206.539V50.9809H208.953V49.1433H209.77V53.5864H208.953V51.6164H206.539V53.5864H205.73Z" fill="#151515"/>
<path d="M212.197 53.5864V49.7885H210.578V49.1433H214.617V49.7885H213.001V53.5864H212.197Z" fill="#151515"/>
<path d="M215.495 55.4713V50.1458C215.495 49.9741 215.495 49.7985 215.477 49.621C215.459 49.4435 215.445 49.266 215.422 49.0884H216.218L216.317 50.1188H216.218C216.301 49.7868 216.507 49.497 216.796 49.3065C217.11 49.1029 217.48 48.9992 217.856 49.0093C218.228 49.0012 218.595 49.0969 218.914 49.2853C219.222 49.4761 219.466 49.752 219.614 50.0783C219.79 50.468 219.875 50.8911 219.864 51.3171C219.875 51.7443 219.79 52.1686 219.614 52.5597C219.467 52.8882 219.223 53.1663 218.914 53.3585C218.595 53.5468 218.228 53.6426 217.856 53.6344C217.485 53.6433 217.119 53.5395 216.81 53.3373C216.523 53.1452 216.315 52.8604 216.22 52.5327H216.319V55.4713H215.495ZM217.658 52.9938C217.845 53.0013 218.032 52.967 218.205 52.8935C218.377 52.82 218.53 52.7092 218.653 52.5693C218.9 52.2837 219.022 51.867 219.022 51.3171C219.022 50.7671 218.9 50.3523 218.653 50.0745C218.529 49.9366 218.375 49.8277 218.203 49.7556C218.031 49.6835 217.845 49.65 217.658 49.6576C217.472 49.6506 217.288 49.6844 217.118 49.7566C216.948 49.8287 216.796 49.9373 216.674 50.0745C216.425 50.3484 216.301 50.7626 216.301 51.3171C216.301 51.8715 216.423 52.2889 216.667 52.5693C216.789 52.7106 216.942 52.8224 217.116 52.896C217.289 52.9696 217.477 53.0031 217.666 52.9938H217.658Z" fill="#151515"/>
<path d="M11.1789 44.9412C11.0967 42.8942 12.6737 41.7965 13.3903 44.8056C14.1069 47.8146 15.0803 54.5288 15.0803 54.5288C15.0803 54.5288 11.297 53.8661 11.3381 53.5974C11.3792 53.3288 11.1789 44.9412 11.1789 44.9412Z" fill="#00578A"/>
<path d="M7.5428 40.0183C7.44217 37.491 9.39804 36.1471 10.2857 39.85C11.1733 43.5529 12.3861 51.8359 12.3861 51.8359C12.3861 51.8359 7.68987 51.0199 7.74148 50.6883C7.79308 50.3568 7.5428 40.0183 7.5428 40.0183Z" fill="#007D99"/>
<path d="M3.88815 36.3913C3.77708 33.5803 5.90761 32.0802 6.8719 36.2048C7.83619 40.3293 9.15641 49.5471 9.15641 49.5471C9.15641 49.5471 3.0425 43.1583 3.09803 42.7954C3.15357 42.4325 3.88815 36.3913 3.88815 36.3913Z" fill="#01A6A0"/>
<path d="M28.5765 73.1088C27.7136 59.5524 13.6377 59.4666 7.59469 54.6586C1.55169 49.8506 0.224122 37.5778 0.596863 34.8242C0.969603 32.0705 2.43248 30.7104 3.64772 34.5563C4.86295 38.4022 5.99904 45.3284 10.5843 48.5286C15.1695 51.7289 23.7607 52.15 18.8714 48.6154C12.4888 44.0013 13.5941 39.5415 15.1101 38.6089C16.2695 37.8958 18.9837 42.8886 22.7647 44.9277C26.5457 46.9668 32.2024 48.5708 34.8193 54.9228C37.7941 62.1437 28.5765 73.1088 28.5765 73.1088Z" fill="#00C6BF"/>
<path d="M57.2616 6.02669C53.0957 3.18118 46.1738 1.55301 39.3819 5.92464C36.6284 8.54812 34.3134 12.1031 32.7531 16.7197C32.7531 16.7197 24.768 7.92789 11.9924 12.7232C-0.783225 17.5184 0.00966736 31.3709 0.00966736 31.3709C0.00966736 31.3709 3.68607 20.0909 15.9798 19.3764C28.2736 18.6618 34.6748 30.5146 34.6748 30.5146C34.6748 30.5146 36.2357 18.506 47.3848 15.6478C57.667 13.0217 63.8547 21.1041 61.2542 31.1642C65.6852 20.9254 63.8827 10.5463 57.2616 6.02669Z" fill="#00578A"/>
<path d="M52.2383 48.9838C52.2383 48.9838 41.7129 36.4878 23.1562 43.1605C23.1562 43.1605 32.6394 42.9594 36.9585 53.7894C39.6462 60.5283 33.1234 70.4161 33.1234 70.4161C33.1234 70.4161 44.5923 60.9895 52.2383 48.9838Z" fill="#00578A"/>
<path d="M71.3442 8.42509C65.0524 -0.83138 49.3254 -3.57641 39.3519 5.89651C46.1489 1.53438 53.076 3.15902 57.245 5.99835C63.8787 10.5082 65.6647 20.8545 61.2508 31.0863C60.9792 32.1239 60.6312 33.1402 60.2098 34.1268C55.9591 44.1294 50.8869 50.4956 50.8869 50.4956C43.4648 61.7001 32.8516 70.5508 32.8516 70.5508C73.9601 53.3264 82.1291 24.305 71.3442 8.42509Z" fill="#00C6BF"/>
<path style="mix-blend-mode:multiply" opacity="0.29" d="M56.6432 16.5776C62.149 19.9569 62.2495 26.7864 61.136 31.1016C65.5441 20.8724 63.7468 10.5286 57.1448 6.01992C52.9908 3.1813 46.0888 1.55708 39.3164 5.91811C44.7872 2.73326 57.5228 0.14668 56.6432 16.5776Z" fill="#00578A"/>
<path style="mix-blend-mode:multiply" opacity="0.29" d="M48.4875 45.6426C46.2541 53.6628 37.1416 66.439 33.1211 70.4161C33.1211 70.4161 42.8591 62.485 52.2398 48.7616C51.0784 47.6922 49.8276 46.5337 48.4875 45.6426Z" fill="#00578A"/>
</svg>
